<svg width="30" height="30" viewBox="0 0 30 30" fill="none" xmlns="http://www.w3.org/2000/svg">
<path d="M24.7359 0H5.2641C2.36133 0 0 2.36133 0 5.2641V24.7359C0 27.6387 2.36133 30 5.2641 30H24.7359C27.6387 30 30 27.6387 30 24.7359V5.2641C30 2.36133 27.6387 0 24.7359 0ZM7.90833 18.1622L12.5748 12.6552C12.9556 12.2051 13.513 11.9425 14.1024 11.9344C14.1118 11.9339 14.1211 11.9339 14.1304 11.9339C14.71 11.9339 15.2618 12.1804 15.6491 12.6123L18.3188 15.5931C18.3977 15.681 18.4946 15.6885 18.5449 15.6863C18.5953 15.6826 18.6903 15.6632 18.7582 15.5673L23.3091 9.10309C23.5886 8.70648 24.1371 8.61145 24.5339 8.89087C24.9309 9.16992 25.0259 9.71832 24.7465 10.1157L20.1956 16.5791C19.8358 17.0901 19.2715 17.4042 18.6475 17.4404C18.0234 17.4767 17.4263 17.2311 17.009 16.7653L14.3401 13.7853C14.2657 13.7027 14.1757 13.6923 14.1264 13.6917C14.079 13.6928 13.9874 13.7064 13.9153 13.7913L9.24902 19.2984C9.07562 19.5042 8.8277 19.6097 8.57812 19.6097C8.37781 19.6097 8.17566 19.541 8.0105 19.4009C7.64008 19.0876 7.5943 18.5325 7.90833 18.1622ZM24.9399 26.0671H5.85938C4.73492 26.0671 3.82031 25.1525 3.82031 24.028V4.89716C3.82031 4.41211 4.21417 4.01825 4.69922 4.01825C5.18481 4.01825 5.57812 4.41211 5.57812 4.89716V24.028C5.57812 24.1827 5.70465 24.3093 5.85938 24.3093H24.9399C25.4251 24.3093 25.8188 24.7026 25.8188 25.1882C25.8188 25.6734 25.4251 26.0671 24.9399 26.0671Z" fill="#218838"/>
</svg>
