<svg width="30" height="30" viewBox="0 0 30 30" fill="none" xmlns="http://www.w3.org/2000/svg">
<path d="M26.5385 0H3.46154C2.54348 0 1.66303 0.379285 1.01386 1.05442C0.364697 1.72955 0 2.64522 0 3.6V26.4C0 27.3548 0.364697 28.2705 1.01386 28.9456C1.66303 29.6207 2.54348 30 3.46154 30H26.5385C27.4565 30 28.337 29.6207 28.9861 28.9456C29.6353 28.2705 30 27.3548 30 26.4V3.6C30 2.64522 29.6353 1.72955 28.9861 1.05442C28.337 0.379285 27.4565 0 26.5385 0ZM5.85577 12.462C5.76885 12.2423 5.74657 12.0008 5.79176 11.7679C5.83695 11.5351 5.94757 11.3214 6.10962 11.154L9.57115 7.554C9.79189 7.35741 10.0758 7.25468 10.3662 7.26635C10.6566 7.27801 10.9321 7.40321 11.1376 7.61692C11.3431 7.83064 11.4635 8.11712 11.4747 8.41914C11.4859 8.72115 11.3871 9.01644 11.1981 9.246L9.70962 10.8H22.5C22.806 10.8 23.0995 10.9264 23.3159 11.1515C23.5323 11.3765 23.6538 11.6817 23.6538 12C23.6538 12.3183 23.5323 12.6235 23.3159 12.8485C23.0995 13.0736 22.806 13.2 22.5 13.2H6.92308C6.69495 13.2005 6.4718 13.1307 6.28183 12.9993C6.09186 12.8679 5.9436 12.681 5.85577 12.462ZM24.4673 19.446L21.0058 23.046C20.9023 23.1716 20.775 23.2736 20.6319 23.3457C20.4887 23.4177 20.3328 23.4582 20.1739 23.4646C20.015 23.4709 19.8565 23.4431 19.7085 23.3828C19.5604 23.3224 19.4259 23.2309 19.3135 23.114C19.201 22.997 19.113 22.8572 19.055 22.7032C18.997 22.5492 18.9702 22.3844 18.9764 22.2191C18.9825 22.0539 19.0214 21.8917 19.0907 21.7428C19.16 21.594 19.2581 21.4616 19.3788 21.354L20.8673 19.8H8.07692C7.7709 19.8 7.47742 19.6736 7.26103 19.4485C7.04464 19.2235 6.92308 18.9183 6.92308 18.6C6.92308 18.2817 7.04464 17.9765 7.26103 17.7515C7.47742 17.5264 7.7709 17.4 8.07692 17.4H23.6538C23.882 17.3995 24.1051 17.4694 24.2951 17.6007C24.4851 17.7321 24.6333 17.919 24.7212 18.138C24.8081 18.3577 24.8304 18.5992 24.7852 18.8321C24.74 19.0649 24.6294 19.2786 24.4673 19.446Z" fill="#6F42C1"/>
</svg>
