<svg width="30" height="30" viewBox="0 0 30 30" fill="none" xmlns="http://www.w3.org/2000/svg">
<g opacity="0.5">
<path d="M29.9989 20.9229C29.9989 21.6568 29.0315 22.3071 27.5697 22.6704C26.7708 22.8782 25.8168 22.995 24.7958 22.995C23.7804 22.995 22.8264 22.8782 22.0286 22.6704C20.5668 22.3061 19.5994 21.6632 19.5994 20.9229C19.5994 19.7796 21.927 18.8496 24.7969 18.8496C27.6713 18.8496 29.9989 19.7786 29.9989 20.9229Z" fill="#2A3259"/>
<path d="M27.996 27.7329C27.0319 27.9761 25.9261 28.1046 24.7947 28.1046C23.6677 28.1046 22.5642 27.9761 21.6023 27.7339C20.7554 27.5196 20.1027 27.2443 19.5983 26.9432V27.9268C19.5983 29.07 21.9259 30 24.7958 30C27.6713 30 30 29.0711 30 27.9268V26.9432C29.4945 27.2443 28.8429 27.5186 27.996 27.7329Z" fill="#2A3259"/>
<path d="M17.9246 27.9268V20.5607L17.9525 20.5779C18.237 18.5979 20.9685 17.2436 24.7947 17.2436C26.3156 17.2436 27.6635 17.4568 28.7547 17.8382V2.07857L25.173 0L21.58 2.07857L17.9759 0L14.3941 2.07857L10.8012 0L7.20821 2.07857L3.59295 0L0 2.07857V27.1714C0 28.7357 1.31667 30 2.94577 30H18.9846C18.3062 29.4246 17.9246 28.7207 17.9246 27.9268ZM19.4767 17.0036H5.98639C5.43182 17.0036 4.98215 16.5718 4.98215 16.0393C4.98215 15.5068 5.43182 15.075 5.98639 15.075H19.4767C20.0312 15.075 20.4809 15.5068 20.4809 16.0393C20.4809 16.5718 20.0312 17.0036 19.4767 17.0036ZM5.98527 9.26464H22.7695C23.324 9.26464 23.7737 9.69643 23.7737 10.2289C23.7737 10.7614 23.324 11.1932 22.7695 11.1932H5.98527C5.43071 11.1932 4.98103 10.7614 4.98103 10.2289C4.98103 9.69643 5.43071 9.26464 5.98527 9.26464ZM13.5394 22.8161H5.98527C5.43071 22.8161 4.98103 22.3843 4.98103 21.8518C4.98103 21.3193 5.43071 20.8875 5.98527 20.8875H13.5405C14.0951 20.8875 14.5447 21.3193 14.5447 21.8518C14.5447 22.3843 14.094 22.8161 13.5394 22.8161Z" fill="#2A3259"/>
<path d="M27.9904 24.2261C27.0487 24.4704 25.9384 24.6021 24.7958 24.6021C23.6565 24.6021 22.5485 24.4704 21.5912 24.2218C20.7498 24.0129 20.1015 23.7418 19.5983 23.4439V24.4243C19.5983 25.1646 20.5657 25.8086 22.0274 26.1782C22.8264 26.3796 23.7804 26.4964 24.7947 26.4964C25.8168 26.4964 26.7708 26.3796 27.5686 26.1782C29.0303 25.8075 29.9978 25.1582 29.9978 24.4243V23.4418C29.4934 23.7418 28.8395 24.015 27.9904 24.2261Z" fill="#2A3259"/>
</g>
</svg>
