<svg width="16" height="16" viewBox="0 0 16 16" fill="none" xmlns="http://www.w3.org/2000/svg">
<g opacity="0.3">
<path d="M6.51163 2.60465C6.65906 2.60272 6.7999 2.5433 6.90416 2.43904C7.00842 2.33479 7.06784 2.19394 7.06977 2.04651V0.55814C7.06977 0.410112 7.01096 0.268147 6.90629 0.163475C6.80162 0.0588038 6.65966 0 6.51163 0C6.3636 0 6.22164 0.0588038 6.11697 0.163475C6.01229 0.268147 5.95349 0.410112 5.95349 0.55814V2.04651C5.95542 2.19394 6.01484 2.33479 6.1191 2.43904C6.22335 2.5433 6.3642 2.60272 6.51163 2.60465Z" fill="#2A3259"/>
<path d="M3.53488 2.60465C3.68231 2.60272 3.82316 2.5433 3.92742 2.43904C4.03167 2.33479 4.0911 2.19394 4.09302 2.04651V0.55814C4.09302 0.410112 4.03422 0.268147 3.92955 0.163475C3.82488 0.0588038 3.68291 0 3.53488 0C3.38686 0 3.24489 0.0588038 3.14022 0.163475C3.03555 0.268147 2.97674 0.410112 2.97674 0.55814V2.04651C2.97867 2.19394 3.0381 2.33479 3.14235 2.43904C3.24661 2.5433 3.38746 2.60272 3.53488 2.60465Z" fill="#2A3259"/>
<path d="M9.48837 2.60465C9.6358 2.60272 9.77665 2.5433 9.88091 2.43904C9.98516 2.33479 10.0446 2.19394 10.0465 2.04651V0.55814C10.0465 0.410112 9.98771 0.268147 9.88304 0.163475C9.77837 0.0588038 9.6364 0 9.48837 0C9.34034 0 9.19838 0.0588038 9.09371 0.163475C8.98904 0.268147 8.93023 0.410112 8.93023 0.55814V2.04651C8.93216 2.19394 8.99158 2.33479 9.09584 2.43904C9.2001 2.5433 9.34094 2.60272 9.48837 2.60465Z" fill="#2A3259"/>
<path d="M12.4651 2.60465C12.6125 2.60272 12.7534 2.5433 12.8576 2.43904C12.9619 2.33479 13.0213 2.19394 13.0233 2.04651V0.55814C13.0233 0.410112 12.9645 0.268147 12.8598 0.163475C12.7551 0.0588038 12.6131 0 12.4651 0C12.3171 0 12.1751 0.0588038 12.0705 0.163475C11.9658 0.268147 11.907 0.410112 11.907 0.55814V2.04651C11.9089 2.19394 11.9683 2.33479 12.0726 2.43904C12.1768 2.5433 12.3177 2.60272 12.4651 2.60465Z" fill="#2A3259"/>
<path d="M0 5.2093V3.53488C0 2.99212 0.215614 2.47158 0.59941 2.08778C0.983205 1.70399 1.50374 1.48837 2.04651 1.48837H13.9535C14.4963 1.48837 15.0168 1.70399 15.4006 2.08778C15.7844 2.47158 16 2.99212 16 3.53488V5.2093H0Z" fill="#2A3259"/>
<path d="M16 6.32558V13.9535C16 14.4963 15.7844 15.0168 15.4006 15.4006C15.0168 15.7844 14.4963 16 13.9535 16H2.04651C1.50374 16 0.983205 15.7844 0.59941 15.4006C0.215614 15.0168 0 14.4963 0 13.9535V6.32558H16ZM12.4651 13.2093C12.6123 13.2093 12.7562 13.1657 12.8786 13.0839C13.0009 13.0021 13.0963 12.8859 13.1527 12.7499C13.209 12.6139 13.2237 12.4643 13.195 12.3199C13.1663 12.1756 13.0954 12.043 12.9913 11.9389C12.8873 11.8348 12.7547 11.7639 12.6103 11.7352C12.4659 11.7065 12.3163 11.7213 12.1803 11.7776C12.0443 11.8339 11.9281 11.9293 11.8463 12.0517C11.7646 12.174 11.7209 12.3179 11.7209 12.4651C11.7209 12.6625 11.7993 12.8518 11.9389 12.9913C12.0785 13.1309 12.2677 13.2093 12.4651 13.2093ZM12.4651 10.2326C12.6123 10.2326 12.7562 10.1889 12.8786 10.1071C13.0009 10.0254 13.0963 9.90914 13.1527 9.77316C13.209 9.63718 13.2237 9.48755 13.195 9.34319C13.1663 9.19883 13.0954 9.06623 12.9913 8.96215C12.8873 8.85808 12.7547 8.7872 12.6103 8.75848C12.4659 8.72977 12.3163 8.74451 12.1803 8.80083C12.0443 8.85716 11.9281 8.95254 11.8463 9.07492C11.7646 9.1973 11.7209 9.34119 11.7209 9.48837C11.7209 9.68574 11.7993 9.87503 11.9389 10.0146C12.0785 10.1542 12.2677 10.2326 12.4651 10.2326ZM9.48837 13.2093C9.63556 13.2093 9.77944 13.1657 9.90182 13.0839C10.0242 13.0021 10.1196 12.8859 10.1759 12.7499C10.2322 12.6139 10.247 12.4643 10.2183 12.3199C10.1895 12.1756 10.1187 12.043 10.0146 11.9389C9.91051 11.8348 9.77791 11.7639 9.63356 11.7352C9.4892 11.7065 9.33957 11.7213 9.20358 11.7776C9.0676 11.8339 8.95138 11.9293 8.8696 12.0517C8.78783 12.174 8.74419 12.3179 8.74419 12.4651C8.74419 12.6625 8.82259 12.8518 8.96215 12.9913C9.10172 13.1309 9.291 13.2093 9.48837 13.2093ZM9.48837 10.2326C9.63556 10.2326 9.77944 10.1889 9.90182 10.1071C10.0242 10.0254 10.1196 9.90914 10.1759 9.77316C10.2322 9.63718 10.247 9.48755 10.2183 9.34319C10.1895 9.19883 10.1187 9.06623 10.0146 8.96215C9.91051 8.85808 9.77791 8.7872 9.63356 8.75848C9.4892 8.72977 9.33957 8.74451 9.20358 8.80083C9.0676 8.85716 8.95138 8.95254 8.8696 9.07492C8.78783 9.1973 8.74419 9.34119 8.74419 9.48837C8.74419 9.68574 8.82259 9.87503 8.96215 10.0146C9.10172 10.1542 9.291 10.2326 9.48837 10.2326ZM6.51163 13.2093C6.65881 13.2093 6.8027 13.1657 6.92508 13.0839C7.04746 13.0021 7.14284 12.8859 7.19917 12.7499C7.25549 12.6139 7.27023 12.4643 7.24152 12.3199C7.2128 12.1756 7.14192 12.043 7.03785 11.9389C6.93377 11.8348 6.80117 11.7639 6.65681 11.7352C6.51245 11.7065 6.36282 11.7213 6.22684 11.7776C6.09086 11.8339 5.97463 11.9293 5.89286 12.0517C5.81109 12.174 5.76744 12.3179 5.76744 12.4651C5.76744 12.6625 5.84585 12.8518 5.98541 12.9913C6.12497 13.1309 6.31426 13.2093 6.51163 13.2093ZM6.51163 10.2326C6.65881 10.2326 6.8027 10.1889 6.92508 10.1071C7.04746 10.0254 7.14284 9.90914 7.19917 9.77316C7.25549 9.63718 7.27023 9.48755 7.24152 9.34319C7.2128 9.19883 7.14192 9.06623 7.03785 8.96215C6.93377 8.85808 6.80117 8.7872 6.65681 8.75848C6.51245 8.72977 6.36282 8.74451 6.22684 8.80083C6.09086 8.85716 5.97463 8.95254 5.89286 9.07492C5.81109 9.1973 5.76744 9.34119 5.76744 9.48837C5.76744 9.68574 5.84585 9.87503 5.98541 10.0146C6.12497 10.1542 6.31426 10.2326 6.51163 10.2326ZM3.53488 13.2093C3.68207 13.2093 3.82595 13.1657 3.94833 13.0839C4.07071 13.0021 4.1661 12.8859 4.22242 12.7499C4.27875 12.6139 4.29349 12.4643 4.26477 12.3199C4.23606 12.1756 4.16518 12.043 4.0611 11.9389C3.95703 11.8348 3.82443 11.7639 3.68007 11.7352C3.53571 11.7065 3.38608 11.7213 3.2501 11.7776C3.11411 11.8339 2.99789 11.9293 2.91612 12.0517C2.83434 12.174 2.7907 12.3179 2.7907 12.4651C2.7907 12.6625 2.8691 12.8518 3.00866 12.9913C3.14823 13.1309 3.33751 13.2093 3.53488 13.2093ZM3.53488 10.2326C3.68207 10.2326 3.82595 10.1889 3.94833 10.1071C4.07071 10.0254 4.1661 9.90914 4.22242 9.77316C4.27875 9.63718 4.29349 9.48755 4.26477 9.34319C4.23606 9.19883 4.16518 9.06623 4.0611 8.96215C3.95703 8.85808 3.82443 8.7872 3.68007 8.75848C3.53571 8.72977 3.38608 8.74451 3.2501 8.80083C3.11411 8.85716 2.99789 8.95254 2.91612 9.07492C2.83434 9.1973 2.7907 9.34119 2.7907 9.48837C2.7907 9.68574 2.8691 9.87503 3.00866 10.0146C3.14823 10.1542 3.33751 10.2326 3.53488 10.2326Z" fill="#2A3259"/>
</g>
</svg>
