<svg width="40" height="40" viewBox="0 0 40 40" fill="none" xmlns="http://www.w3.org/2000/svg">
<path d="M0.758639 22.389L21.086 0.805517C21.5433 0.32 22.2915 0.32 22.7488 0.805517L35.7184 14.5766C36.1756 15.0621 36.1756 15.8566 35.7184 16.3421L15.391 37.9255C14.9337 38.411 14.1855 38.411 13.7282 37.9255L0.758639 24.1545C0.301377 23.669 0.301377 22.8745 0.758639 22.389Z" fill="#3F55A1"/>
<path d="M4.37516 18.549L21.086 0.805517C21.5433 0.32 22.2915 0.32 22.7488 0.805517L33.0579 11.7517C33.5152 12.2372 33.5152 13.0317 33.0579 13.5172L16.3471 31.2166C15.8898 31.7021 15.1416 31.7021 14.6843 31.2166L4.37516 20.2703C3.9179 19.7848 3.9179 19.0345 4.37516 18.549Z" fill="#4E6ED3"/>
<path d="M13.1463 9.23586L21.086 0.805517C21.5433 0.32 22.2915 0.32 22.7488 0.805517L29.0257 7.47035C29.483 7.95586 29.483 8.75034 29.0257 9.23586C28.5269 9.76552 30.8132 7.33793 24.0374 14.5324C21.9589 16.7393 18.5918 16.7834 16.5134 14.5324L13.1463 10.9572C12.689 10.5159 12.689 9.72138 13.1463 9.23586Z" fill="#679BE7"/>
<path d="M24.9919 3.20074L3.03492 26.5146L5.18066 28.7929L27.1377 5.47906L24.9919 3.20074Z" fill="#505F9B"/>
<path d="M24.9631 3.20942L23.3465 4.92597L25.4922 7.20429L27.1088 5.48775L24.9631 3.20942Z" fill="#8CAFDC"/>
<path d="M16.6617 12.0497L3.02308 26.5311L5.16881 28.8094L18.8074 14.328L16.6617 12.0497Z" fill="#46417D"/>
<path d="M5.01727 24.402L3.0185 26.5243L5.16423 28.8026L7.163 26.6803L5.01727 24.402Z" fill="#3C3C69"/>
<path d="M27.4108 9.64236L22.5609 14.792L24.6478 17.0079L29.4978 11.8583L27.4108 9.64236Z" fill="#8FE6F6"/>
<path d="M9.69602 17.5779H38.4204C39.0855 17.5779 39.5843 18.1517 39.5843 18.8138V38.3228C39.5843 39.029 39.0439 39.5586 38.4204 39.5586H9.69602C9.03092 39.5586 8.53209 38.9848 8.53209 38.3228V18.8138C8.53209 18.1076 9.03092 17.5779 9.69602 17.5779Z" fill="#445FBA"/>
<path d="M12.5227 17.5779H38.3788C39.0439 17.5779 39.5427 18.1517 39.5427 18.8138V38.3228C39.5427 39.029 39.0023 39.5586 38.3788 39.5586H12.5227C11.8576 39.5586 11.3588 38.9848 11.3588 38.3228V18.8138C11.3588 18.1076 11.8992 17.5779 12.5227 17.5779Z" fill="#4E82E7"/>
<path d="M17.4695 17.5779H38.4204C39.0855 17.5779 39.5843 18.1517 39.5843 18.8138L39.5843 35.1007C39.5843 35.8069 39.0439 36.3366 38.4204 36.3366H17.4695C16.8044 36.3366 16.3055 35.7628 16.3055 35.1007V18.8138C16.3055 18.1076 16.8044 17.5779 17.4695 17.5779Z" fill="#4EBEF6"/>
<path d="M24.7025 22.7862H36.5082C37.1733 22.7862 37.6721 23.36 37.6721 24.0221V29.3628C37.6721 30.069 37.1317 30.5986 36.5082 30.5986H24.7025C24.0374 30.5986 23.5386 30.0248 23.5386 29.3628V24.0662C23.5386 23.36 24.0374 22.7862 24.7025 22.7862Z" fill="#8FE6F6"/>
<path d="M18.5503 20.4028H11.3588V25.2138H18.5503V20.4028Z" fill="#FFD850"/>
<path d="M35.7184 33.6441C35.2611 33.6441 33.723 33.6441 33.2658 33.6441C32.185 33.6441 31.2705 34.571 31.2705 35.7628C31.2705 36.9103 32.1434 37.8814 33.2658 37.8814C33.723 37.8814 35.2611 37.8814 35.7184 37.8814C36.7992 37.8814 37.7137 36.9545 37.7137 35.7628C37.6721 34.6152 36.7992 33.6441 35.7184 33.6441Z" fill="#FF8D50"/>
<path d="M14.0608 25.6552C13.8114 25.6552 13.6451 25.4786 13.6451 25.2138V20.4028C13.6451 20.1379 13.8114 19.9614 14.0608 19.9614C14.3102 19.9614 14.4765 20.1379 14.4765 20.4028V25.1697C14.4765 25.4345 14.2686 25.6552 14.0608 25.6552Z" fill="#302D3D"/>
<path d="M11.3588 30.5103C11.1094 30.5103 10.9431 30.3338 10.9431 30.069V28.5683C10.9431 28.3034 11.1094 28.1269 11.3588 28.1269C11.6082 28.1269 11.7745 28.3034 11.7745 28.5683V30.069C11.7745 30.2897 11.6082 30.5103 11.3588 30.5103Z" fill="#302D3D"/>
<path d="M14.6012 30.5103C14.3518 30.5103 14.1855 30.3338 14.1855 30.069V28.5683C14.1855 28.3034 14.3518 28.1269 14.6012 28.1269C14.8506 28.1269 15.0169 28.3034 15.0169 28.5683V30.069C15.0169 30.2897 14.8506 30.5103 14.6012 30.5103Z" fill="#302D3D"/>
<path d="M17.8852 30.5103C17.6357 30.5103 17.4695 30.3338 17.4695 30.069V28.5683C17.4695 28.3034 17.6357 28.1269 17.8852 28.1269C18.1346 28.1269 18.3009 28.3034 18.3009 28.5683V30.069C18.3009 30.2897 18.093 30.5103 17.8852 30.5103Z" fill="#302D3D"/>
<path d="M21.1276 30.5103C20.8782 30.5103 20.7119 30.3338 20.7119 30.069V28.5683C20.7119 28.3034 20.8782 28.1269 21.1276 28.1269C21.377 28.1269 21.5433 28.3034 21.5433 28.5683V30.069C21.5433 30.2897 21.3354 30.5103 21.1276 30.5103Z" fill="#302D3D"/>
<path d="M26.49 30.5103C26.2406 30.5103 26.0743 30.3338 26.0743 30.069V28.5683C26.0743 28.3034 26.2406 28.1269 26.49 28.1269C26.7394 28.1269 26.9057 28.3034 26.9057 28.5683V30.069C26.9057 30.2897 26.7394 30.5103 26.49 30.5103Z" fill="#302D3D"/>
<path d="M29.7324 30.5103C29.483 30.5103 29.3167 30.3338 29.3167 30.069V28.5683C29.3167 28.3034 29.483 28.1269 29.7324 28.1269C29.9818 28.1269 30.1481 28.3034 30.1481 28.5683V30.069C30.1481 30.2897 29.9818 30.5103 29.7324 30.5103Z" fill="#302D3D"/>
<path d="M33.0164 30.5103C32.767 30.5103 32.6007 30.3338 32.6007 30.069V28.5683C32.6007 28.3034 32.767 28.1269 33.0164 28.1269C33.2658 28.1269 33.4321 28.3034 33.4321 28.5683V30.069C33.4321 30.2897 33.2242 30.5103 33.0164 30.5103Z" fill="#302D3D"/>
<path d="M36.2588 30.5103C36.0094 30.5103 35.8431 30.3338 35.8431 30.069V28.5683C35.8431 28.3034 36.0094 28.1269 36.2588 28.1269C36.5082 28.1269 36.6745 28.3034 36.6745 28.5683V30.069C36.6745 30.2897 36.5082 30.5103 36.2588 30.5103Z" fill="#302D3D"/>
<path d="M30.3144 20.8441H29.6077C29.3583 20.8441 29.192 20.6676 29.192 20.4028C29.192 20.1379 29.3583 19.9614 29.6077 19.9614H30.3559C30.8963 19.9614 30.8963 20.8441 30.3144 20.8441Z" fill="#302D3D"/>
<path d="M33.2658 20.8441H32.5175C32.2681 20.8441 32.1018 20.6676 32.1018 20.4028C32.1018 20.1379 32.2681 19.9614 32.5175 19.9614H33.2658C33.5152 19.9614 33.6815 20.1379 33.6815 20.4028C33.6815 20.6676 33.5152 20.8441 33.2658 20.8441Z" fill="#302D3D"/>
<path d="M36.2588 20.8441H35.5105C35.2611 20.8441 35.0948 20.6676 35.0948 20.4028C35.0948 20.1379 35.2611 19.9614 35.5105 19.9614H36.2588C36.5082 19.9614 36.6745 20.1379 36.6745 20.4028C36.6745 20.6676 36.5082 20.8441 36.2588 20.8441Z" fill="#302D3D"/>
<path d="M13.6451 34.1297H11.4004C11.1509 34.1297 10.9847 33.9531 10.9847 33.6883C10.9847 33.4235 11.1509 33.2469 11.4004 33.2469H13.6451C13.8945 33.2469 14.0608 33.4235 14.0608 33.6883C14.0608 33.9531 13.8529 34.1297 13.6451 34.1297Z" fill="#302D3D"/>
<path d="M17.802 34.1297H15.5573C15.3079 34.1297 15.1416 33.9531 15.1416 33.6883C15.1416 33.4235 15.3079 33.2469 15.5573 33.2469H17.802C18.0514 33.2469 18.2177 33.4235 18.2177 33.6883C18.2177 33.9531 18.0099 34.1297 17.802 34.1297Z" fill="#302D3D"/>
<path d="M13.6451 36.7779H11.4004C11.1509 36.7779 10.9847 36.6014 10.9847 36.3366C10.9847 36.0717 11.1509 35.8952 11.4004 35.8952H13.6451C13.8945 35.8952 14.0608 36.0717 14.0608 36.3366C14.0608 36.6014 13.8529 36.7779 13.6451 36.7779Z" fill="#302D3D"/>
<path d="M17.802 36.7779H15.5573C15.3079 36.7779 15.1416 36.6014 15.1416 36.3366C15.1416 36.0717 15.3079 35.8952 15.5573 35.8952H17.802C18.0514 35.8952 18.2177 36.0717 18.2177 36.3366C18.2177 36.6014 18.0099 36.7779 17.802 36.7779Z" fill="#302D3D"/>
<path d="M21.9174 34.1297H19.6726C19.4232 34.1297 19.2569 33.9531 19.2569 33.6883C19.2569 33.4235 19.4232 33.2469 19.6726 33.2469H21.9174C22.1668 33.2469 22.3331 33.4235 22.3331 33.6883C22.3331 33.9531 22.1668 34.1297 21.9174 34.1297Z" fill="#302D3D"/>
<path d="M18.5503 23.2276H14.0608C13.8114 23.2276 13.6451 23.051 13.6451 22.7862C13.6451 22.5214 13.8114 22.3448 14.0608 22.3448H18.5503C18.7997 22.3448 18.966 22.5214 18.966 22.7862C18.966 23.051 18.7997 23.2276 18.5503 23.2276Z" fill="#302D3D"/>
<path d="M8.53209 32.8055C8.40738 32.8055 8.32424 32.7614 8.2411 32.6731L0.467654 24.4634C-0.155885 23.8014 -0.155885 22.7421 0.467654 22.08L20.795 0.496552C21.4185 -0.165517 22.4162 -0.165517 23.0397 0.496552L36.0093 14.3117C36.6329 14.9738 36.6329 16.0331 36.0093 16.6952L34.8454 17.8869C34.6791 18.0634 34.4297 18.0634 34.2634 17.8869C34.0972 17.7103 34.0972 17.4455 34.2634 17.269L35.4274 16.0331C35.7184 15.7241 35.7184 15.2386 35.4274 14.9297C34.3466 13.7379 39.8337 19.6083 22.4162 1.11448C22.1252 0.805517 21.668 0.805517 21.377 1.11448C20.5872 1.9531 25.908 -3.69655 1.04962 22.6979C0.758639 23.0069 0.758639 23.5366 1.04962 23.8455L8.82307 32.0552C9.07249 32.32 8.90621 32.8055 8.53209 32.8055Z" fill="#302D3D"/>
<path d="M4.87399 29.0979L2.75396 26.8469C2.58768 26.6703 2.58768 26.4055 2.75396 26.229C3.29436 25.6552 0.758639 28.3476 8.2411 20.4028C8.40738 20.2262 8.65679 20.2262 8.82307 20.4028C8.98935 20.5793 8.98935 20.8441 8.82307 21.0207L3.58535 26.5379L5.12341 28.171L8.19953 24.9048C8.36581 24.7283 8.61522 24.7283 8.7815 24.9048C8.94778 25.0814 8.94778 25.3462 8.7815 25.5228L5.41439 29.0979C5.37282 29.1862 5.08184 29.3628 4.87399 29.0979Z" fill="#302D3D"/>
<path d="M15.7236 18.0193C15.3494 18.0193 15.1832 17.5338 15.4326 17.269L26.5316 5.48414L24.9935 3.85103L11.7329 17.8869C11.5666 18.0634 11.3172 18.0634 11.1509 17.8869C10.9847 17.7103 10.9847 17.4455 11.1509 17.269L24.7025 2.88C24.8688 2.70345 25.1182 2.70345 25.2845 2.88C25.4923 3.10069 24.4947 2.04138 27.4045 5.13103C27.5708 5.30759 27.5708 5.57241 27.4045 5.74897C26.2822 6.94069 31.5614 1.33517 16.0145 17.8428C15.9314 17.9752 15.8483 18.0193 15.7236 18.0193Z" fill="#302D3D"/>
<path d="M24.3284 17.3131L22.2499 15.1062C22.0837 14.9297 22.0837 14.6648 22.2499 14.4883L27.1135 9.28C27.2798 9.10345 27.5292 9.10345 27.6955 9.28C27.9034 9.50069 26.9473 8.48552 29.774 11.4869C29.9402 11.6634 29.9402 11.9283 29.774 12.1048L24.9104 17.3131C24.7441 17.4455 24.4947 17.4455 24.3284 17.3131ZM23.1645 14.7972L24.6194 16.3862L28.901 11.84L27.4045 10.251L23.1645 14.7972Z" fill="#302D3D"/>
<path d="M38.4204 40H9.69602C8.82307 40 8.11639 39.2497 8.11639 38.3228V18.8138C8.11639 17.8869 8.82307 17.1366 9.69602 17.1366H38.4204C39.2933 17.1366 40 17.8869 40 18.8138V38.3228C40 39.2497 39.2933 40 38.4204 40ZM9.69602 18.0193C9.28033 18.0193 8.94778 18.3724 8.94778 18.8138V38.3228C8.94778 38.7641 9.28033 39.1172 9.69602 39.1172H38.4204C38.8361 39.1172 39.1686 38.7641 39.1686 38.3228V18.8138C39.1686 18.3724 38.8361 18.0193 38.4204 18.0193H9.69602Z" fill="#302D3D"/>
<path d="M18.5503 25.6552H11.3588C11.1094 25.6552 10.9431 25.4786 10.9431 25.2138V20.4028C10.9431 20.1379 11.1094 19.9614 11.3588 19.9614H18.5503C18.7997 19.9614 18.966 20.1379 18.966 20.4028V25.1697C18.966 25.4345 18.7997 25.6552 18.5503 25.6552ZM11.7745 24.7724H18.1346V20.8883H11.7745V24.7724Z" fill="#302D3D"/>
<path d="M35.7184 38.3228H33.2658C31.9356 38.3228 30.8548 37.1752 30.8548 35.7628C30.8548 34.3503 31.9356 33.2028 33.2658 33.2028H35.7184C37.0486 33.2028 38.1294 34.3503 38.1294 35.7628C38.1294 37.1752 37.007 38.3228 35.7184 38.3228ZM33.2242 34.0855C32.3513 34.0855 31.6446 34.8359 31.6446 35.7628C31.6446 36.6897 32.3513 37.44 33.2242 37.44H35.6768C36.5498 37.44 37.2564 36.6897 37.2564 35.7628C37.2564 34.8359 36.5498 34.0855 35.6768 34.0855H33.2242Z" fill="#302D3D"/>
</svg>
