<svg width="15" height="15" viewBox="0 0 15 15" fill="none" xmlns="http://www.w3.org/2000/svg">
<path d="M15 1.5587C14.987 1.14015 14.8111 0.743326 14.5099 0.453193C14.2066 0.162333 13.803 0 13.3832 0C12.9635 0 12.5599 0.162333 12.2566 0.453193L7.58473 5.1369L2.90758 0.453193C2.6045 0.163901 2.20205 0.00254813 1.78357 0.00254813C1.36509 0.00254813 0.96264 0.163901 0.659559 0.453193C0.361908 0.753382 0.194838 1.15946 0.194838 1.58273C0.194838 2.006 0.361908 2.41208 0.659559 2.71227L5.33139 7.39598L0.659559 12.101C0.472517 12.2371 0.317135 12.4122 0.204125 12.6143C0.0911152 12.8164 0.0231669 13.0407 0.00496506 13.2716C-0.0132368 13.5026 0.0187409 13.7348 0.0986932 13.9521C0.178645 14.1695 0.30467 14.3669 0.468078 14.5307C0.631486 14.6946 0.828389 14.8209 1.04521 14.9011C1.26203 14.9812 1.49362 15.0133 1.72399 14.995C1.95437 14.9768 2.17806 14.9087 2.37963 14.7954C2.58121 14.6821 2.75588 14.5263 2.8916 14.3388L7.58473 9.66039L12.2619 14.3388C12.5688 14.5886 12.9571 14.7155 13.3519 14.6951C13.7466 14.6746 14.1198 14.5082 14.3994 14.2279C14.6789 13.9477 14.8449 13.5735 14.8653 13.1778C14.8857 12.782 14.7591 12.3927 14.5099 12.085L9.84341 7.39598L14.5099 2.69091C14.6622 2.54404 14.7839 2.36836 14.8681 2.17401C14.9522 1.97967 14.997 1.77053 15 1.5587Z" fill="white"/>
</svg>
