<svg width="25" height="25" viewBox="0 0 25 25" fill="none" xmlns="http://www.w3.org/2000/svg">
<path d="M25 2.59783C24.9784 1.90025 24.6852 1.23888 24.1832 0.755322C23.6776 0.270556 23.005 0 22.3054 0C21.6058 0 20.9332 0.270556 20.4276 0.755322L12.6412 8.56151L4.84596 0.755322C4.34083 0.273168 3.67008 0.00424688 2.97261 0.00424688C2.27515 0.00424688 1.6044 0.273168 1.09926 0.755322C0.60318 1.25564 0.32473 1.93243 0.32473 2.63789C0.32473 3.34334 0.60318 4.02013 1.09926 4.52045L8.88565 12.3266L1.09926 20.1684C0.787529 20.3952 0.528558 20.687 0.340208 21.0239C0.151859 21.3607 0.0386115 21.7344 0.00827511 22.1194C-0.0220613 22.5043 0.0312348 22.8913 0.164489 23.2536C0.297742 23.6158 0.507784 23.9448 0.78013 24.2179C1.05248 24.4909 1.38065 24.7015 1.74202 24.8351C2.10339 24.9687 2.48936 25.0221 2.87332 24.9917C3.25728 24.9613 3.63009 24.8478 3.96605 24.6589C4.30201 24.4701 4.59313 24.2105 4.81933 23.8979L12.6412 16.1007L20.4365 23.8979C20.9479 24.3143 21.5951 24.5259 22.2531 24.4918C22.9111 24.4576 23.5331 24.1803 23.9989 23.7132C24.4648 23.2462 24.7415 22.6226 24.7755 21.963C24.8095 21.3033 24.5985 20.6545 24.1832 20.1417L16.4057 12.3266L24.1832 4.48484C24.437 4.24007 24.6399 3.94726 24.7801 3.62335C24.9203 3.29945 24.9951 2.95089 25 2.59783Z" fill="#2A3259"/>
</svg>
