<svg width="20" height="20" viewBox="0 0 20 20" fill="none" xmlns="http://www.w3.org/2000/svg">
<path d="M14 10.72V16.11C14 18.45 12.44 20 10.11 20H3.89C1.56 20 0 18.45 0 16.11V8.34C0 6 1.56 4.45 3.89 4.45H7.72C8.75 4.45 9.74 4.86 10.47 5.59L12.86 7.97C13.59 8.7 14 9.69 14 10.72Z" fill="#207FFF"/>
<path d="M20 6.28V11.67C20 14 18.44 15.56 16.11 15.56H15V10.72C15 9.43 14.48 8.17 13.57 7.26L11.18 4.88C10.27 3.97 9.01 3.45 7.72 3.45H6.02C6.2 1.37 7.71 0 9.89 0H13.72C14.75 0 15.74 0.41 16.47 1.14L18.86 3.53C19.59 4.26 20 5.25 20 6.28Z" fill="#207FFF"/>
</svg>
