<svg width="18" height="18" viewBox="0 0 18 18" fill="none" xmlns="http://www.w3.org/2000/svg">
<path d="M16.0759 12.8614C15.9054 12.8614 15.7418 12.9291 15.6212 13.0497C15.5006 13.1703 15.4329 13.3339 15.4329 13.5044V14.096C15.44 14.1847 15.4286 14.2738 15.3995 14.3579C15.3704 14.442 15.3242 14.5191 15.2637 14.5843C15.2033 14.6496 15.13 14.7016 15.0484 14.7371C14.9669 14.7726 14.8788 14.7908 14.7899 14.7905H9.64564V3.21596H14.7899C14.8788 3.21568 14.9669 3.23385 15.0484 3.26933C15.13 3.30482 15.2033 3.35684 15.2637 3.42211C15.3242 3.48738 15.3704 3.56448 15.3995 3.64853C15.4286 3.73258 15.44 3.82176 15.4329 3.91043V4.50202C15.4329 4.67256 15.5006 4.83612 15.6212 4.95671C15.7418 5.0773 15.9054 5.14504 16.0759 5.14504C16.2465 5.14504 16.41 5.0773 16.5306 4.95671C16.6512 4.83612 16.7189 4.67256 16.7189 4.50202V3.91043C16.7258 3.6528 16.681 3.39641 16.5871 3.15639C16.4933 2.91638 16.3523 2.6976 16.1724 2.51298C15.9926 2.32837 15.7776 2.18165 15.5402 2.08151C15.3027 1.98136 15.0476 1.92981 14.7899 1.9299H9.64564C9.64102 1.63758 9.57174 1.3499 9.44278 1.08752C9.31381 0.825144 9.12836 0.594572 8.89972 0.412357C8.67603 0.233118 8.41427 0.107475 8.1345 0.0450565C7.85474 -0.0173616 7.56439 -0.0148972 7.28573 0.0522611L1.49848 1.4412C1.06629 1.54614 0.682598 1.79486 0.410359 2.14655C0.13812 2.49824 -0.00650038 2.93202 0.000224362 3.37672V14.6297C-0.0053776 15.0724 0.138997 15.5041 0.409861 15.8543C0.680725 16.2046 1.06214 16.4529 1.49205 16.5588L7.27929 17.9477C7.55796 18.0149 7.84831 18.0174 8.12807 17.9549C8.40784 17.8925 8.6696 17.7669 8.89329 17.5876C9.12228 17.4067 9.30846 17.1775 9.43852 16.9163C9.56858 16.655 9.6393 16.3683 9.64564 16.0765H14.7899C15.0476 16.0766 15.3027 16.0251 15.5402 15.9249C15.7776 15.8248 15.9926 15.6781 16.1724 15.4934C16.3523 15.3088 16.4933 15.0901 16.5871 14.85C16.681 14.61 16.7258 14.3536 16.7189 14.096V13.5044C16.7189 13.3339 16.6512 13.1703 16.5306 13.0497C16.41 12.9291 16.2465 12.8614 16.0759 12.8614Z" fill="white"/>
<path d="M17.7156 8.4695L13.8575 5.89739C13.7608 5.8337 13.6486 5.7973 13.533 5.79205C13.4173 5.7868 13.3023 5.81288 13.2002 5.86755C13.0982 5.92221 13.0127 6.00343 12.953 6.10262C12.8932 6.20181 12.8614 6.3153 12.8608 6.4311V7.07413H11.5747C11.2336 7.07413 10.9065 7.20962 10.6653 7.45081C10.4242 7.69199 10.2887 8.0191 10.2887 8.36019V9.64624C10.2887 9.98733 10.4242 10.3144 10.6653 10.5556C10.9065 10.7968 11.2336 10.9323 11.5747 10.9323H12.8608V11.5753C12.8614 11.6911 12.8932 11.8046 12.953 11.9038C13.0127 12.003 13.0982 12.0842 13.2002 12.1389C13.3023 12.1935 13.4173 12.2196 13.533 12.2144C13.6486 12.2091 13.7608 12.1727 13.8575 12.109L17.7156 9.53693C17.8032 9.47811 17.8749 9.39866 17.9245 9.30559C17.9741 9.21251 18 9.10867 18 9.00321C18 8.89775 17.9741 8.79391 17.9245 8.70084C17.8749 8.60777 17.8032 8.52832 17.7156 8.4695Z" fill="white"/>
</svg>
