<svg width="19" height="19" viewBox="0 0 19 19" fill="none" xmlns="http://www.w3.org/2000/svg">
<path opacity="0.5" fill-rule="evenodd" clip-rule="evenodd" d="M3.41673 16.4412C3.25104 16.4412 3.11673 16.5755 3.11673 16.7412V17.0903C3.11673 17.256 3.25104 17.3903 3.41673 17.3903H8.4526C8.61829 17.3903 8.7526 17.256 8.7526 17.0903V16.7412C8.7526 16.5755 8.61829 16.4412 8.4526 16.4412H3.41673ZM2.31217 16.0038C2.31224 15.8879 2.35463 15.7767 2.43003 15.6947C2.50543 15.6127 2.60769 15.5666 2.71434 15.5665H9.15503C9.26171 15.5666 9.36399 15.6127 9.43943 15.6947C9.51487 15.7767 9.55732 15.8879 9.55746 16.0038V17.8278C9.55775 17.8853 9.54753 17.9424 9.52741 17.9956C9.50729 18.0488 9.47766 18.0971 9.44023 18.1378C9.4028 18.1785 9.35833 18.2107 9.30937 18.2326C9.26042 18.2545 9.20796 18.2656 9.15503 18.2653H2.71434C2.66142 18.2656 2.60898 18.2545 2.56004 18.2326C2.5111 18.2107 2.46665 18.1785 2.42924 18.1378C2.39184 18.0971 2.36223 18.0488 2.34214 17.9956C2.32204 17.9423 2.31186 17.8853 2.31217 17.8278V16.0038ZM16.2563 18.7863C16.2182 18.9132 16.1015 19 15.969 19H0.555743C0.354732 19 0.210591 18.8062 0.26843 18.6137L2.89647 9.86669C2.93457 9.73986 3.05134 9.65301 3.18378 9.65301H18.5966C18.7976 9.65301 18.9418 9.84682 18.884 10.0393L16.2563 18.7863ZM0 4.51632C0 4.35063 0.134315 4.21632 0.3 4.21632H4.84143C4.93544 4.21632 5.024 4.26038 5.08071 4.33535L5.41677 4.77968C5.45617 4.83178 5.47749 4.89532 5.47749 4.96065V8.47831C5.47749 8.644 5.34318 8.77831 5.17749 8.77831H2.66859C2.58378 8.77808 2.50108 8.80708 2.43239 8.86115C2.36369 8.91522 2.31253 8.99156 2.28625 9.07922L0.587309 14.7333C0.487884 15.0641 0 14.9924 0 14.6469V4.51632ZM7.45469 1.83691C7.45484 1.72096 7.49729 1.6098 7.57273 1.52782C7.64817 1.44585 7.75044 1.39974 7.85711 1.39962H13.8301C13.9362 1.40074 14.0375 1.4473 14.1121 1.5292C14.1868 1.6111 14.2286 1.72171 14.2286 1.83698C14.2286 1.95224 14.1868 2.06285 14.1121 2.14475C14.0375 2.22665 13.9362 2.27322 13.8301 2.27433H7.85711C7.80419 2.27464 7.75173 2.26354 7.70278 2.24167C7.65383 2.2198 7.60935 2.18759 7.57193 2.14691C7.5345 2.10623 7.50487 2.05789 7.48475 2.00468C7.46462 1.95147 7.45441 1.89445 7.45469 1.83691ZM7.45469 7.24312C7.45481 7.12714 7.49724 7.01595 7.57269 6.93395C7.64813 6.85194 7.75042 6.80582 7.85711 6.8057H13.8301C13.9369 6.8057 14.0392 6.85178 14.1146 6.93381C14.1901 7.01583 14.2325 7.12708 14.2325 7.24307C14.2325 7.35907 14.1901 7.47032 14.1146 7.55234C14.0392 7.63437 13.9369 7.68045 13.8301 7.68045H7.85711C7.75045 7.68033 7.64818 7.63423 7.57274 7.55226C7.4973 7.47029 7.45485 7.35906 7.45469 7.24312ZM7.45469 4.53995C7.45483 4.424 7.49727 4.31283 7.57272 4.23085C7.64816 4.14887 7.75044 4.10277 7.85711 4.10266H13.8301C13.9362 4.10377 14.0375 4.15034 14.1121 4.23224C14.1868 4.31414 14.2286 4.42475 14.2286 4.54002C14.2286 4.65528 14.1868 4.76589 14.1121 4.84779C14.0375 4.92969 13.9362 4.97626 13.8301 4.97737H7.85711C7.75042 4.97725 7.64813 4.93113 7.57269 4.84912C7.49724 4.76712 7.45481 4.65593 7.45469 4.53995ZM13.1037 0.0969381C13.0469 0.0351579 12.9668 0 12.8829 0H6.58205C6.41636 0 6.28205 0.134315 6.28205 0.3V8.47831C6.28205 8.644 6.41636 8.77831 6.58205 8.77831H15.1049C15.2706 8.77831 15.4049 8.644 15.4049 8.47831V2.71643C15.4049 2.64122 15.3767 2.56874 15.3257 2.51337L13.1037 0.0969381Z" fill="#2A3259"/>
</svg>
