<svg width="207" height="40" viewBox="0 0 207 40" fill="none" xmlns="http://www.w3.org/2000/svg">
<path d="M104.926 30H96.8184V10.2715H104.898C108.385 10.2715 110.682 12.2129 110.682 15.1934C110.682 17.2852 109.15 19.1582 107.182 19.4863V19.5957C109.848 19.8965 111.666 21.7969 111.666 24.4219C111.666 27.8945 109.137 30 104.926 30ZM99.8809 12.7734V18.666H103.504C106.17 18.666 107.633 17.5723 107.633 15.6172C107.633 13.7852 106.375 12.7734 104.146 12.7734H99.8809ZM99.8809 27.498H104.311C107.072 27.498 108.535 26.3633 108.535 24.2305C108.535 22.0977 107.018 21.0039 104.133 21.0039H99.8809V27.498ZM127.17 30L125.365 24.668H117.846L116.041 30H112.855L119.979 10.2715H123.287L130.41 30H127.17ZM121.564 13.5527L118.625 22.207H124.586L121.646 13.5527H121.564ZM140.691 30H132.584V10.2715H140.664C144.15 10.2715 146.447 12.2129 146.447 15.1934C146.447 17.2852 144.916 19.1582 142.947 19.4863V19.5957C145.613 19.8965 147.432 21.7969 147.432 24.4219C147.432 27.8945 144.902 30 140.691 30ZM135.646 12.7734V18.666H139.27C141.936 18.666 143.398 17.5723 143.398 15.6172C143.398 13.7852 142.141 12.7734 139.912 12.7734H135.646ZM135.646 27.498H140.076C142.838 27.498 144.301 26.3633 144.301 24.2305C144.301 22.0977 142.783 21.0039 139.898 21.0039H135.646V27.498ZM150.084 10.2715H157.152C163.031 10.2715 166.49 13.8809 166.49 20.1016C166.49 26.3359 163.031 30 157.152 30H150.084V10.2715ZM153.146 12.9102V27.3477H156.865C161.049 27.3477 163.373 24.791 163.373 20.1289C163.373 15.4805 161.049 12.9102 156.865 12.9102H153.146ZM174.27 27.7852C176.471 27.7852 178.139 26.377 178.139 24.4219V23.2598L174.529 23.5059C172.506 23.6289 171.453 24.3809 171.453 25.6934C171.453 26.9648 172.561 27.7852 174.27 27.7852ZM173.477 30.1504C170.51 30.1504 168.459 28.4004 168.459 25.748C168.459 23.1504 170.469 21.6465 174.133 21.4141L178.139 21.1816V20.0332C178.139 18.3379 177.004 17.4082 175.021 17.4082C173.408 17.4082 172.232 18.2422 171.973 19.5273H169.197C169.279 16.9023 171.768 14.9609 175.104 14.9609C178.727 14.9609 181.064 16.875 181.064 19.8145V30H178.234V27.5254H178.166C177.346 29.1387 175.5 30.1504 173.477 30.1504ZM184.934 11.8164H187.887V15.1523H190.73V17.4902H187.887V25.7891C187.887 27.0742 188.461 27.6758 189.705 27.6758C190.02 27.6758 190.525 27.6348 190.717 27.6074V29.9453C190.389 30.0273 189.691 30.0957 189.049 30.0957C186.082 30.0957 184.934 28.9609 184.934 26.0898V17.4902H182.883V15.1523H184.934V11.8164ZM198.277 27.7852C200.479 27.7852 202.146 26.377 202.146 24.4219V23.2598L198.537 23.5059C196.514 23.6289 195.461 24.3809 195.461 25.6934C195.461 26.9648 196.568 27.7852 198.277 27.7852ZM197.484 30.1504C194.518 30.1504 192.467 28.4004 192.467 25.748C192.467 23.1504 194.477 21.6465 198.141 21.4141L202.146 21.1816V20.0332C202.146 18.3379 201.012 17.4082 199.029 17.4082C197.416 17.4082 196.24 18.2422 195.98 19.5273H193.205C193.287 16.9023 195.775 14.9609 199.111 14.9609C202.734 14.9609 205.072 16.875 205.072 19.8145V30H202.242V27.5254H202.174C201.354 29.1387 199.508 30.1504 197.484 30.1504Z" fill="#207FFF"/>
<path d="M73.1015 12.5571L73.0131 12.3473C72.0231 9.99705 70.6105 7.91365 68.7703 6.09846C66.8946 4.28122 64.723 2.89556 62.2515 1.9383L62.251 1.93809C59.7766 0.976472 57.1368 0.5 54.3313 0.5H39.7255V22.9948H47.6429V8.79089V8.29089H48.1429H54.3334C56.0989 8.29089 57.7372 8.57732 59.2344 9.15459C60.7244 9.72702 62.0187 10.5284 63.1179 11.5582C63.118 11.5583 63.1181 11.5584 63.1183 11.5585L62.7764 11.9234L73.1015 12.5571ZM73.1015 12.5571L73.1056 12.5585M73.1015 12.5571L73.1056 12.5585M73.1056 12.5585C74.0332 14.8462 74.5 17.2836 74.5 19.8634C74.5 22.5263 74.0342 25.0364 73.0937 27.3856L73.0933 27.3866C72.1594 29.7347 70.7866 31.8166 68.9819 33.6308L68.9767 33.636L68.9717 33.6414C68.0912 34.58 67.1107 35.3947 66.0249 36.0979C64.9278 36.8057 63.7697 37.4143 62.5398 37.9198C59.9415 38.9653 57.2094 39.4876 54.3355 39.4876H41.3499H40.8499V39.5H13.8988C12.0648 39.5 10.353 39.2222 8.76615 38.6725C7.18046 38.1232 5.7869 37.3226 4.57828 36.2637L4.57515 36.261C3.26708 35.1339 2.26184 33.7949 1.55749 32.2408L1.55739 32.2406C0.852982 30.6883 0.5 29.0861 0.5 27.2236C0.5 25.362 0.877735 23.661 1.62744 22.1128C2.38023 20.5669 3.47062 19.2652 4.90994 18.2084L5.28313 17.9344L5.03859 17.5413C4.04515 15.9442 3.53963 14.0551 3.53963 11.8613C3.53963 9.39065 4.14874 7.28607 5.34539 5.51375L5.34541 5.51376L5.3478 5.51016C6.34247 4.00918 7.73654 2.82432 9.54966 1.96302L9.54969 1.96309L9.5574 1.95926C10.4911 1.49587 11.5264 1.14667 12.6618 0.914281L12.6638 0.913861C13.7949 0.677533 15.0113 0.562112 16.3086 0.562112H32.6987V22.9969H15.3136C12.9382 22.9969 11.0651 23.4263 9.7865 24.3789C9.43879 24.595 9.13275 24.9188 8.86765 25.3132C8.54364 25.7953 8.41528 26.4548 8.41528 27.2215C8.41528 28.2282 8.65145 29.0858 9.18025 29.7358L9.18175 29.7376C9.66527 30.3263 10.2335 30.7714 10.8862 31.0664L10.8883 31.0674C11.4992 31.34 12.1069 31.5217 12.7057 31.5953C13.2478 31.6678 13.6512 31.705 13.8967 31.705H13.8968L54.3334 31.6925C54.3335 31.6925 54.3335 31.6925 54.3336 31.6925C56.0982 31.6925 57.7439 31.4084 59.2572 30.8298L73.1056 12.5585ZM11.5378 10.8513L11.5013 11.1016L11.5049 11.1051C11.4717 11.3704 11.4528 11.623 11.4528 11.8592C11.4528 12.5861 11.5703 13.2106 11.8902 13.6517L11.8902 13.6517L11.8937 13.6565C12.1727 14.0317 12.5334 14.3346 12.9751 14.5727L12.9751 14.5727L12.9789 14.5747C13.4113 14.8029 13.8761 14.9663 14.3778 15.0604C14.8332 15.1494 15.1916 15.1998 15.4144 15.1998H24.2814H24.7814V14.6998V8.853V8.353H24.2814H16.3065C15.2038 8.353 14.299 8.45728 13.6272 8.69141L13.6253 8.69207C12.9865 8.91754 12.4689 9.21201 12.1243 9.61117L12.1242 9.61112L12.1186 9.61796C11.8122 9.98589 11.6041 10.3962 11.5378 10.8513Z" fill="#207FFF" stroke="#F8F9FC"/>
</svg>
