<svg width="207" height="47" viewBox="0 0 207 47" fill="none" xmlns="http://www.w3.org/2000/svg">
<path d="M104.926 26H96.8184V6.27148H104.898C108.385 6.27148 110.682 8.21289 110.682 11.1934C110.682 13.2852 109.15 15.1582 107.182 15.4863V15.5957C109.848 15.8965 111.666 17.7969 111.666 20.4219C111.666 23.8945 109.137 26 104.926 26ZM99.8809 8.77344V14.666H103.504C106.17 14.666 107.633 13.5723 107.633 11.6172C107.633 9.78516 106.375 8.77344 104.146 8.77344H99.8809ZM99.8809 23.498H104.311C107.072 23.498 108.535 22.3633 108.535 20.2305C108.535 18.0977 107.018 17.0039 104.133 17.0039H99.8809V23.498ZM127.17 26L125.365 20.668H117.846L116.041 26H112.855L119.979 6.27148H123.287L130.41 26H127.17ZM121.564 9.55273L118.625 18.207H124.586L121.646 9.55273H121.564ZM140.691 26H132.584V6.27148H140.664C144.15 6.27148 146.447 8.21289 146.447 11.1934C146.447 13.2852 144.916 15.1582 142.947 15.4863V15.5957C145.613 15.8965 147.432 17.7969 147.432 20.4219C147.432 23.8945 144.902 26 140.691 26ZM135.646 8.77344V14.666H139.27C141.936 14.666 143.398 13.5723 143.398 11.6172C143.398 9.78516 142.141 8.77344 139.912 8.77344H135.646ZM135.646 23.498H140.076C142.838 23.498 144.301 22.3633 144.301 20.2305C144.301 18.0977 142.783 17.0039 139.898 17.0039H135.646V23.498ZM150.084 6.27148H157.152C163.031 6.27148 166.49 9.88086 166.49 16.1016C166.49 22.3359 163.031 26 157.152 26H150.084V6.27148ZM153.146 8.91016V23.3477H156.865C161.049 23.3477 163.373 20.791 163.373 16.1289C163.373 11.4805 161.049 8.91016 156.865 8.91016H153.146ZM174.27 23.7852C176.471 23.7852 178.139 22.377 178.139 20.4219V19.2598L174.529 19.5059C172.506 19.6289 171.453 20.3809 171.453 21.6934C171.453 22.9648 172.561 23.7852 174.27 23.7852ZM173.477 26.1504C170.51 26.1504 168.459 24.4004 168.459 21.748C168.459 19.1504 170.469 17.6465 174.133 17.4141L178.139 17.1816V16.0332C178.139 14.3379 177.004 13.4082 175.021 13.4082C173.408 13.4082 172.232 14.2422 171.973 15.5273H169.197C169.279 12.9023 171.768 10.9609 175.104 10.9609C178.727 10.9609 181.064 12.875 181.064 15.8145V26H178.234V23.5254H178.166C177.346 25.1387 175.5 26.1504 173.477 26.1504ZM184.934 7.81641H187.887V11.1523H190.73V13.4902H187.887V21.7891C187.887 23.0742 188.461 23.6758 189.705 23.6758C190.02 23.6758 190.525 23.6348 190.717 23.6074V25.9453C190.389 26.0273 189.691 26.0957 189.049 26.0957C186.082 26.0957 184.934 24.9609 184.934 22.0898V13.4902H182.883V11.1523H184.934V7.81641ZM198.277 23.7852C200.479 23.7852 202.146 22.377 202.146 20.4219V19.2598L198.537 19.5059C196.514 19.6289 195.461 20.3809 195.461 21.6934C195.461 22.9648 196.568 23.7852 198.277 23.7852ZM197.484 26.1504C194.518 26.1504 192.467 24.4004 192.467 21.748C192.467 19.1504 194.477 17.6465 198.141 17.4141L202.146 17.1816V16.0332C202.146 14.3379 201.012 13.4082 199.029 13.4082C197.416 13.4082 196.24 14.2422 195.98 15.5273H193.205C193.287 12.9023 195.775 10.9609 199.111 10.9609C202.734 10.9609 205.072 12.875 205.072 15.8145V26H202.242V23.5254H202.174C201.354 25.1387 199.508 26.1504 197.484 26.1504Z" fill="#207FFF"/>
<path d="M96.215 45C96.055 45 95.975 44.92 95.975 44.76V34.74C95.975 34.58 96.055 34.5 96.215 34.5H98.99C99.12 34.5 99.23 34.575 99.32 34.725L103.925 42.24H104.12L108.725 34.725C108.815 34.575 108.925 34.5 109.055 34.5H111.83C111.99 34.5 112.07 34.58 112.07 34.74V44.76C112.07 44.92 111.99 45 111.83 45H109.91C109.76 45 109.685 44.92 109.685 44.76V37.695H109.52L105.2 44.76C105.1 44.92 104.98 45 104.84 45H103.205C103.065 45 102.945 44.92 102.845 44.76L98.525 37.695H98.36V44.76C98.36 44.92 98.285 45 98.135 45H96.215ZM122.332 42.06H116.002V42.555C116.002 42.705 116.062 42.83 116.182 42.93C116.312 43.03 116.472 43.08 116.662 43.08H120.142C120.582 43.08 120.882 43.07 121.042 43.05C121.212 43.02 121.502 42.945 121.912 42.825C122.092 42.785 122.292 42.815 122.512 42.915L123.127 43.2C123.337 43.28 123.387 43.42 123.277 43.62C122.987 44.16 122.622 44.54 122.182 44.76C121.742 44.97 121.102 45.075 120.262 45.075H116.287C115.497 45.075 114.872 44.845 114.412 44.385C113.952 43.915 113.722 43.295 113.722 42.525V39.96C113.722 39.19 113.947 38.58 114.397 38.13C114.857 37.67 115.487 37.44 116.287 37.44H120.847C121.647 37.44 122.272 37.665 122.722 38.115C123.182 38.565 123.412 39.175 123.412 39.945V40.98C123.412 41.32 123.317 41.585 123.127 41.775C122.937 41.965 122.672 42.06 122.332 42.06ZM116.662 39.465C116.472 39.465 116.312 39.515 116.182 39.615C116.062 39.705 116.002 39.825 116.002 39.975V40.485H121.132V39.975C121.132 39.825 121.067 39.705 120.937 39.615C120.817 39.515 120.662 39.465 120.472 39.465H116.662ZM125.082 45C124.922 45 124.842 44.92 124.842 44.76V37.74C124.842 37.58 124.922 37.5 125.082 37.5H126.912C126.962 37.5 127.007 37.525 127.047 37.575C127.097 37.615 127.122 37.67 127.122 37.74V38.175H127.287C127.507 37.895 127.717 37.705 127.917 37.605C128.127 37.495 128.482 37.44 128.982 37.44H132.087C132.917 37.44 133.532 37.605 133.932 37.935C134.332 38.265 134.532 38.795 134.532 39.525C134.532 39.845 134.382 40.005 134.082 40.005H132.612C132.442 40.005 132.322 39.915 132.252 39.735C132.142 39.555 131.892 39.465 131.502 39.465H127.737C127.547 39.465 127.397 39.515 127.287 39.615C127.177 39.705 127.122 39.825 127.122 39.975V44.76C127.122 44.92 127.047 45 126.897 45H125.082ZM138.318 45.075C137.528 45.075 136.903 44.845 136.443 44.385C135.983 43.915 135.753 43.295 135.753 42.525V39.96C135.753 39.19 135.978 38.58 136.428 38.13C136.888 37.67 137.518 37.44 138.318 37.44H142.923C143.803 37.44 144.443 37.655 144.843 38.085C145.243 38.505 145.443 39.12 145.443 39.93V40.29C145.443 40.5 145.333 40.605 145.113 40.605H143.538C143.318 40.605 143.208 40.52 143.208 40.35V39.975C143.208 39.785 143.158 39.655 143.058 39.585C142.968 39.505 142.813 39.465 142.593 39.465H138.693C138.503 39.465 138.343 39.515 138.213 39.615C138.093 39.705 138.033 39.825 138.033 39.975V42.555C138.033 42.705 138.093 42.83 138.213 42.93C138.343 43.03 138.503 43.08 138.693 43.08H142.173C142.613 43.08 142.913 43.07 143.073 43.05C143.243 43.02 143.533 42.945 143.943 42.825C144.123 42.785 144.323 42.815 144.543 42.915L145.158 43.2C145.368 43.28 145.418 43.42 145.308 43.62C145.018 44.16 144.653 44.54 144.213 44.76C143.773 44.97 143.133 45.075 142.293 45.075H138.318ZM154.15 37.44C154.95 37.44 155.575 37.665 156.025 38.115C156.485 38.565 156.715 39.175 156.715 39.945V44.76C156.715 44.92 156.635 45 156.475 45H154.66C154.5 45 154.42 44.92 154.42 44.76V39.975C154.42 39.825 154.36 39.705 154.24 39.615C154.12 39.515 153.965 39.465 153.775 39.465H149.695C149.505 39.465 149.355 39.515 149.245 39.615C149.135 39.705 149.08 39.825 149.08 39.975V44.76C149.08 44.92 149.005 45 148.855 45H147.04C146.88 45 146.8 44.92 146.8 44.76V34.74C146.8 34.58 146.88 34.5 147.04 34.5H148.855C149.005 34.5 149.08 34.58 149.08 34.74V38.175H149.245C149.465 37.895 149.675 37.705 149.875 37.605C150.085 37.495 150.44 37.44 150.94 37.44H154.15ZM160.446 45.075C159.666 45.075 159.046 44.865 158.586 44.445C158.136 44.015 157.911 43.42 157.911 42.66C157.911 41.88 158.101 41.32 158.481 40.98C158.871 40.63 159.516 40.455 160.416 40.455H165.711V39.975C165.711 39.845 165.686 39.745 165.636 39.675C165.596 39.595 165.521 39.54 165.411 39.51C165.301 39.47 165.201 39.45 165.111 39.45C165.031 39.44 164.896 39.435 164.706 39.435H161.466C161.106 39.435 160.861 39.52 160.731 39.69C160.661 39.87 160.541 39.96 160.371 39.96H158.901C158.591 39.96 158.436 39.805 158.436 39.495C158.436 38.775 158.636 38.255 159.036 37.935C159.446 37.605 160.066 37.44 160.896 37.44H165.096C167.026 37.44 167.991 38.26 167.991 39.9V44.76C167.991 44.92 167.911 45 167.751 45H165.936C165.786 45 165.711 44.92 165.711 44.76V44.025H165.561C165.081 44.725 164.421 45.075 163.581 45.075H160.446ZM160.506 43.05H165.111C165.321 43.05 165.476 43.025 165.576 42.975C165.676 42.925 165.731 42.88 165.741 42.84C165.761 42.8 165.761 42.735 165.741 42.645C165.721 42.555 165.711 42.505 165.711 42.495V42.18H160.506C160.286 42.18 160.176 42.33 160.176 42.63C160.176 42.91 160.286 43.05 160.506 43.05ZM169.73 45C169.57 45 169.49 44.92 169.49 44.76V37.74C169.49 37.58 169.57 37.5 169.73 37.5H171.56C171.61 37.5 171.655 37.525 171.695 37.575C171.745 37.615 171.77 37.67 171.77 37.74V38.175H171.935C172.155 37.895 172.365 37.705 172.565 37.605C172.775 37.495 173.13 37.44 173.63 37.44H176.84C177.64 37.44 178.265 37.665 178.715 38.115C179.175 38.565 179.405 39.175 179.405 39.945V44.76C179.405 44.92 179.325 45 179.165 45H177.35C177.19 45 177.11 44.92 177.11 44.76V39.975C177.11 39.825 177.05 39.705 176.93 39.615C176.81 39.515 176.655 39.465 176.465 39.465H172.385C172.195 39.465 172.045 39.515 171.935 39.615C171.825 39.705 171.77 39.825 171.77 39.975V44.76C171.77 44.92 171.695 45 171.545 45H169.73ZM184.549 45C183.759 45 183.134 44.77 182.674 44.31C182.224 43.85 181.999 43.235 181.999 42.465V39.525H180.739C180.579 39.525 180.499 39.445 180.499 39.285V37.755C180.499 37.585 180.579 37.5 180.739 37.5H181.999V36.51C181.999 36.35 182.074 36.27 182.224 36.27H184.039C184.199 36.27 184.279 36.35 184.279 36.51V37.5H188.194C188.354 37.5 188.434 37.58 188.434 37.74V39.285C188.434 39.355 188.409 39.415 188.359 39.465C188.309 39.505 188.259 39.525 188.209 39.525H184.279V42.45C184.279 42.6 184.334 42.725 184.444 42.825C184.554 42.925 184.684 42.975 184.834 42.975H188.194C188.354 42.975 188.434 43.05 188.434 43.2V44.775C188.434 44.845 188.409 44.9 188.359 44.94C188.309 44.98 188.259 45 188.209 45H184.549ZM192.148 45C191.318 45 190.703 44.845 190.303 44.535C189.903 44.215 189.703 43.7 189.703 42.99C189.703 42.68 189.853 42.525 190.153 42.525H191.623C191.793 42.525 191.913 42.615 191.983 42.795C192.103 42.935 192.353 43.005 192.733 43.005H197.038C197.268 43.005 197.383 42.885 197.383 42.645C197.383 42.425 197.238 42.305 196.948 42.285L192.418 42.09C191.478 42.05 190.788 41.87 190.348 41.55C189.908 41.22 189.688 40.635 189.688 39.795C189.688 38.265 190.568 37.5 192.328 37.5H197.023C197.853 37.5 198.463 37.66 198.853 37.98C199.253 38.29 199.453 38.8 199.453 39.51C199.453 39.68 199.433 39.8 199.393 39.87C199.353 39.94 199.253 39.975 199.093 39.975H197.623C197.393 39.975 197.243 39.885 197.173 39.705C197.053 39.565 196.808 39.495 196.438 39.495H192.298C192.078 39.495 191.968 39.61 191.968 39.84C191.968 40.09 192.113 40.225 192.403 40.245L196.933 40.44C197.863 40.48 198.548 40.66 198.988 40.98C199.438 41.3 199.663 41.845 199.663 42.615C199.663 44.205 198.783 45 197.023 45H192.148Z" fill="#207FFF"/>
<path d="M73.1015 18.5571L73.0131 18.3473C72.0231 15.997 70.6105 13.9136 68.7703 12.0985C66.8946 10.2812 64.723 8.89556 62.2515 7.9383L62.251 7.93809C59.7766 6.97647 57.1368 6.5 54.3313 6.5H39.7255V28.9948H47.6429V14.7909V14.2909H48.1429H54.3334C56.0989 14.2909 57.7372 14.5773 59.2344 15.1546C60.7244 15.727 62.0187 16.5284 63.1179 17.5582C63.118 17.5583 63.1181 17.5584 63.1183 17.5585L62.7764 17.9234L73.1015 18.5571ZM73.1015 18.5571L73.1056 18.5585M73.1015 18.5571L73.1056 18.5585M73.1056 18.5585C74.0332 20.8462 74.5 23.2836 74.5 25.8634C74.5 28.5263 74.0342 31.0364 73.0937 33.3856L73.0933 33.3866C72.1594 35.7347 70.7866 37.8166 68.9819 39.6308L68.9767 39.636L68.9717 39.6414C68.0912 40.58 67.1107 41.3947 66.0249 42.0979C64.9278 42.8057 63.7697 43.4143 62.5398 43.9198C59.9415 44.9653 57.2094 45.4876 54.3355 45.4876H41.3499H40.8499V45.5H13.8988C12.0648 45.5 10.353 45.2222 8.76615 44.6725C7.18046 44.1232 5.7869 43.3226 4.57828 42.2637L4.57515 42.261C3.26708 41.1339 2.26184 39.7949 1.55749 38.2408L1.55739 38.2406C0.852982 36.6883 0.5 35.0861 0.5 33.2236C0.5 31.362 0.877735 29.661 1.62744 28.1128C2.38023 26.5669 3.47062 25.2652 4.90994 24.2084L5.28313 23.9344L5.03859 23.5413C4.04515 21.9442 3.53963 20.0551 3.53963 17.8613C3.53963 15.3906 4.14874 13.2861 5.34539 11.5137L5.34541 11.5138L5.3478 11.5102C6.34247 10.0092 7.73654 8.82432 9.54966 7.96302L9.54969 7.96309L9.5574 7.95926C10.4911 7.49587 11.5264 7.14667 12.6618 6.91428L12.6638 6.91386C13.7949 6.67753 15.0113 6.56211 16.3086 6.56211H32.6987V28.9969H15.3136C12.9382 28.9969 11.0651 29.4263 9.7865 30.3789C9.43879 30.595 9.13275 30.9188 8.86765 31.3132C8.54364 31.7953 8.41528 32.4548 8.41528 33.2215C8.41528 34.2282 8.65145 35.0858 9.18025 35.7358L9.18175 35.7376C9.66527 36.3263 10.2335 36.7714 10.8862 37.0664L10.8883 37.0674C11.4992 37.34 12.1069 37.5217 12.7057 37.5953C13.2478 37.6678 13.6512 37.705 13.8967 37.705H13.8968L54.3334 37.6925C54.3335 37.6925 54.3335 37.6925 54.3336 37.6925C56.0982 37.6925 57.7439 37.4084 59.2572 36.8298L73.1056 18.5585ZM11.5378 16.8513L11.5013 17.1016L11.5049 17.1051C11.4717 17.3704 11.4528 17.623 11.4528 17.8592C11.4528 18.5861 11.5703 19.2106 11.8902 19.6517L11.8902 19.6517L11.8937 19.6565C12.1727 20.0317 12.5334 20.3346 12.9751 20.5727L12.9751 20.5727L12.9789 20.5747C13.4113 20.8029 13.8761 20.9663 14.3778 21.0604C14.8332 21.1494 15.1916 21.1998 15.4144 21.1998H24.2814H24.7814V20.6998V14.853V14.353H24.2814H16.3065C15.2038 14.353 14.299 14.4573 13.6272 14.6914L13.6253 14.6921C12.9865 14.9175 12.4689 15.212 12.1243 15.6112L12.1242 15.6111L12.1186 15.618C11.8122 15.9859 11.6041 16.3962 11.5378 16.8513Z" fill="#207FFF" stroke="#F8F9FC"/>
</svg>
