<svg width="207" height="48" viewBox="0 0 207 48" fill="none" xmlns="http://www.w3.org/2000/svg">
<path d="M104.926 26H96.8184V6.27148H104.898C108.385 6.27148 110.682 8.21289 110.682 11.1934C110.682 13.2852 109.15 15.1582 107.182 15.4863V15.5957C109.848 15.8965 111.666 17.7969 111.666 20.4219C111.666 23.8945 109.137 26 104.926 26ZM99.8809 8.77344V14.666H103.504C106.17 14.666 107.633 13.5723 107.633 11.6172C107.633 9.78516 106.375 8.77344 104.146 8.77344H99.8809ZM99.8809 23.498H104.311C107.072 23.498 108.535 22.3633 108.535 20.2305C108.535 18.0977 107.018 17.0039 104.133 17.0039H99.8809V23.498ZM127.17 26L125.365 20.668H117.846L116.041 26H112.855L119.979 6.27148H123.287L130.41 26H127.17ZM121.564 9.55273L118.625 18.207H124.586L121.646 9.55273H121.564ZM140.691 26H132.584V6.27148H140.664C144.15 6.27148 146.447 8.21289 146.447 11.1934C146.447 13.2852 144.916 15.1582 142.947 15.4863V15.5957C145.613 15.8965 147.432 17.7969 147.432 20.4219C147.432 23.8945 144.902 26 140.691 26ZM135.646 8.77344V14.666H139.27C141.936 14.666 143.398 13.5723 143.398 11.6172C143.398 9.78516 142.141 8.77344 139.912 8.77344H135.646ZM135.646 23.498H140.076C142.838 23.498 144.301 22.3633 144.301 20.2305C144.301 18.0977 142.783 17.0039 139.898 17.0039H135.646V23.498ZM150.084 6.27148H157.152C163.031 6.27148 166.49 9.88086 166.49 16.1016C166.49 22.3359 163.031 26 157.152 26H150.084V6.27148ZM153.146 8.91016V23.3477H156.865C161.049 23.3477 163.373 20.791 163.373 16.1289C163.373 11.4805 161.049 8.91016 156.865 8.91016H153.146ZM174.27 23.7852C176.471 23.7852 178.139 22.377 178.139 20.4219V19.2598L174.529 19.5059C172.506 19.6289 171.453 20.3809 171.453 21.6934C171.453 22.9648 172.561 23.7852 174.27 23.7852ZM173.477 26.1504C170.51 26.1504 168.459 24.4004 168.459 21.748C168.459 19.1504 170.469 17.6465 174.133 17.4141L178.139 17.1816V16.0332C178.139 14.3379 177.004 13.4082 175.021 13.4082C173.408 13.4082 172.232 14.2422 171.973 15.5273H169.197C169.279 12.9023 171.768 10.9609 175.104 10.9609C178.727 10.9609 181.064 12.875 181.064 15.8145V26H178.234V23.5254H178.166C177.346 25.1387 175.5 26.1504 173.477 26.1504ZM184.934 7.81641H187.887V11.1523H190.73V13.4902H187.887V21.7891C187.887 23.0742 188.461 23.6758 189.705 23.6758C190.02 23.6758 190.525 23.6348 190.717 23.6074V25.9453C190.389 26.0273 189.691 26.0957 189.049 26.0957C186.082 26.0957 184.934 24.9609 184.934 22.0898V13.4902H182.883V11.1523H184.934V7.81641ZM198.277 23.7852C200.479 23.7852 202.146 22.377 202.146 20.4219V19.2598L198.537 19.5059C196.514 19.6289 195.461 20.3809 195.461 21.6934C195.461 22.9648 196.568 23.7852 198.277 23.7852ZM197.484 26.1504C194.518 26.1504 192.467 24.4004 192.467 21.748C192.467 19.1504 194.477 17.6465 198.141 17.4141L202.146 17.1816V16.0332C202.146 14.3379 201.012 13.4082 199.029 13.4082C197.416 13.4082 196.24 14.2422 195.98 15.5273H193.205C193.287 12.9023 195.775 10.9609 199.111 10.9609C202.734 10.9609 205.072 12.875 205.072 15.8145V26H202.242V23.5254H202.174C201.354 25.1387 199.508 26.1504 197.484 26.1504Z" fill="#207FFF"/>
<path d="M108.725 35.5C108.885 35.5 108.965 35.58 108.965 35.74V37.36C108.965 37.51 108.885 37.585 108.725 37.585H103.49V45.76C103.49 45.92 103.41 46 103.25 46H101.39C101.23 46 101.15 45.92 101.15 45.76V37.585H95.915C95.755 37.585 95.675 37.51 95.675 37.36V35.74C95.675 35.58 95.755 35.5 95.915 35.5H108.725ZM117.264 43.06H110.934V43.555C110.934 43.705 110.994 43.83 111.114 43.93C111.244 44.03 111.404 44.08 111.594 44.08H115.074C115.514 44.08 115.814 44.07 115.974 44.05C116.144 44.02 116.434 43.945 116.844 43.825C117.024 43.785 117.224 43.815 117.444 43.915L118.059 44.2C118.269 44.28 118.319 44.42 118.209 44.62C117.919 45.16 117.554 45.54 117.114 45.76C116.674 45.97 116.034 46.075 115.194 46.075H111.219C110.429 46.075 109.804 45.845 109.344 45.385C108.884 44.915 108.654 44.295 108.654 43.525V40.96C108.654 40.19 108.879 39.58 109.329 39.13C109.789 38.67 110.419 38.44 111.219 38.44H115.779C116.579 38.44 117.204 38.665 117.654 39.115C118.114 39.565 118.344 40.175 118.344 40.945V41.98C118.344 42.32 118.249 42.585 118.059 42.775C117.869 42.965 117.604 43.06 117.264 43.06ZM111.594 40.465C111.404 40.465 111.244 40.515 111.114 40.615C110.994 40.705 110.934 40.825 110.934 40.975V41.485H116.064V40.975C116.064 40.825 115.999 40.705 115.869 40.615C115.749 40.515 115.594 40.465 115.404 40.465H111.594ZM122.008 46.075C121.228 46.075 120.608 45.865 120.148 45.445C119.698 45.015 119.473 44.42 119.473 43.66C119.473 42.88 119.663 42.32 120.043 41.98C120.433 41.63 121.078 41.455 121.978 41.455H127.273V40.975C127.273 40.845 127.248 40.745 127.198 40.675C127.158 40.595 127.083 40.54 126.973 40.51C126.863 40.47 126.763 40.45 126.673 40.45C126.593 40.44 126.458 40.435 126.268 40.435H123.028C122.668 40.435 122.423 40.52 122.293 40.69C122.223 40.87 122.103 40.96 121.933 40.96H120.463C120.153 40.96 119.998 40.805 119.998 40.495C119.998 39.775 120.198 39.255 120.598 38.935C121.008 38.605 121.628 38.44 122.458 38.44H126.658C128.588 38.44 129.553 39.26 129.553 40.9V45.76C129.553 45.92 129.473 46 129.313 46H127.498C127.348 46 127.273 45.92 127.273 45.76V45.025H127.123C126.643 45.725 125.983 46.075 125.143 46.075H122.008ZM122.068 44.05H126.673C126.883 44.05 127.038 44.025 127.138 43.975C127.238 43.925 127.293 43.88 127.303 43.84C127.323 43.8 127.323 43.735 127.303 43.645C127.283 43.555 127.273 43.505 127.273 43.495V43.18H122.068C121.848 43.18 121.738 43.33 121.738 43.63C121.738 43.91 121.848 44.05 122.068 44.05ZM144.043 38.44C144.843 38.44 145.468 38.665 145.918 39.115C146.368 39.565 146.593 40.175 146.593 40.945V45.76C146.593 45.92 146.518 46 146.368 46H144.553C144.393 46 144.313 45.92 144.313 45.76V40.975C144.313 40.825 144.253 40.705 144.133 40.615C144.013 40.515 143.858 40.465 143.668 40.465H140.578C140.388 40.465 140.238 40.515 140.128 40.615C140.018 40.705 139.963 40.825 139.963 40.975V45.76C139.963 45.92 139.888 46 139.738 46H137.923C137.763 46 137.683 45.92 137.683 45.76V40.975C137.683 40.825 137.623 40.705 137.503 40.615C137.383 40.515 137.228 40.465 137.038 40.465H133.948C133.758 40.465 133.608 40.515 133.498 40.615C133.388 40.705 133.333 40.825 133.333 40.975V45.76C133.333 45.92 133.258 46 133.108 46H131.293C131.133 46 131.053 45.92 131.053 45.76V38.74C131.053 38.58 131.133 38.5 131.293 38.5H133.123C133.173 38.5 133.218 38.525 133.258 38.575C133.308 38.615 133.333 38.67 133.333 38.74V39.175H133.498C133.718 38.895 133.928 38.705 134.128 38.605C134.338 38.495 134.693 38.44 135.193 38.44H137.413C138.333 38.44 139.018 38.735 139.468 39.325H139.663C139.863 38.995 140.113 38.765 140.413 38.635C140.713 38.505 141.133 38.44 141.673 38.44H144.043ZM150.459 46C149.629 46 149.014 45.845 148.614 45.535C148.214 45.215 148.014 44.7 148.014 43.99C148.014 43.68 148.164 43.525 148.464 43.525H149.934C150.104 43.525 150.224 43.615 150.294 43.795C150.414 43.935 150.664 44.005 151.044 44.005H155.349C155.579 44.005 155.694 43.885 155.694 43.645C155.694 43.425 155.549 43.305 155.259 43.285L150.729 43.09C149.789 43.05 149.099 42.87 148.659 42.55C148.219 42.22 147.999 41.635 147.999 40.795C147.999 39.265 148.879 38.5 150.639 38.5H155.334C156.164 38.5 156.774 38.66 157.164 38.98C157.564 39.29 157.764 39.8 157.764 40.51C157.764 40.68 157.744 40.8 157.704 40.87C157.664 40.94 157.564 40.975 157.404 40.975H155.934C155.704 40.975 155.554 40.885 155.484 40.705C155.364 40.565 155.119 40.495 154.749 40.495H150.609C150.389 40.495 150.279 40.61 150.279 40.84C150.279 41.09 150.424 41.225 150.714 41.245L155.244 41.44C156.174 41.48 156.859 41.66 157.299 41.98C157.749 42.3 157.974 42.845 157.974 43.615C157.974 45.205 157.094 46 155.334 46H150.459Z" fill="#207FFF"/>
<path d="M73.1015 18.5571L73.0131 18.3473C72.0231 15.997 70.6105 13.9136 68.7703 12.0985C66.8946 10.2812 64.723 8.89556 62.2515 7.9383L62.251 7.93809C59.7766 6.97647 57.1368 6.5 54.3313 6.5H39.7255V28.9948H47.6429V14.7909V14.2909H48.1429H54.3334C56.0989 14.2909 57.7372 14.5773 59.2344 15.1546C60.7244 15.727 62.0187 16.5284 63.1179 17.5582C63.118 17.5583 63.1181 17.5584 63.1183 17.5585L62.7764 17.9234L73.1015 18.5571ZM73.1015 18.5571L73.1056 18.5585M73.1015 18.5571L73.1056 18.5585M73.1056 18.5585C74.0332 20.8462 74.5 23.2836 74.5 25.8634C74.5 28.5263 74.0342 31.0364 73.0937 33.3856L73.0933 33.3866C72.1594 35.7347 70.7866 37.8166 68.9819 39.6308L68.9767 39.636L68.9717 39.6414C68.0912 40.58 67.1107 41.3947 66.0249 42.0979C64.9278 42.8057 63.7697 43.4143 62.5398 43.9198C59.9415 44.9653 57.2094 45.4876 54.3355 45.4876H41.3499H40.8499V45.5H13.8988C12.0648 45.5 10.353 45.2222 8.76615 44.6725C7.18046 44.1232 5.7869 43.3226 4.57828 42.2637L4.57515 42.261C3.26708 41.1339 2.26184 39.7949 1.55749 38.2408L1.55739 38.2406C0.852982 36.6883 0.5 35.0861 0.5 33.2236C0.5 31.362 0.877735 29.661 1.62744 28.1128C2.38023 26.5669 3.47062 25.2652 4.90994 24.2084L5.28313 23.9344L5.03859 23.5413C4.04515 21.9442 3.53963 20.0551 3.53963 17.8613C3.53963 15.3906 4.14874 13.2861 5.34539 11.5137L5.34541 11.5138L5.3478 11.5102C6.34247 10.0092 7.73654 8.82432 9.54966 7.96302L9.54969 7.96309L9.5574 7.95926C10.4911 7.49587 11.5264 7.14667 12.6618 6.91428L12.6638 6.91386C13.7949 6.67753 15.0113 6.56211 16.3086 6.56211H32.6987V28.9969H15.3136C12.9382 28.9969 11.0651 29.4263 9.7865 30.3789C9.43879 30.595 9.13275 30.9188 8.86765 31.3132C8.54364 31.7953 8.41528 32.4548 8.41528 33.2215C8.41528 34.2282 8.65145 35.0858 9.18025 35.7358L9.18175 35.7376C9.66527 36.3263 10.2335 36.7714 10.8862 37.0664L10.8883 37.0674C11.4992 37.34 12.1069 37.5217 12.7057 37.5953C13.2478 37.6678 13.6512 37.705 13.8967 37.705H13.8968L54.3334 37.6925C54.3335 37.6925 54.3335 37.6925 54.3336 37.6925C56.0982 37.6925 57.7439 37.4084 59.2572 36.8298L73.1056 18.5585ZM11.5378 16.8513L11.5013 17.1016L11.5049 17.1051C11.4717 17.3704 11.4528 17.623 11.4528 17.8592C11.4528 18.5861 11.5703 19.2106 11.8902 19.6517L11.8902 19.6517L11.8937 19.6565C12.1727 20.0317 12.5334 20.3346 12.9751 20.5727L12.9751 20.5727L12.9789 20.5747C13.4113 20.8029 13.8761 20.9663 14.3778 21.0604C14.8332 21.1494 15.1916 21.1998 15.4144 21.1998H24.2814H24.7814V20.6998V14.853V14.353H24.2814H16.3065C15.2038 14.353 14.299 14.4573 13.6272 14.6914L13.6253 14.6921C12.9865 14.9175 12.4689 15.212 12.1243 15.6112L12.1242 15.6111L12.1186 15.618C11.8122 15.9859 11.6041 16.3962 11.5378 16.8513Z" fill="#207FFF" stroke="#F8F9FC"/>
</svg>
