<svg width="33" height="33" viewBox="0 0 33 33" fill="none" xmlns="http://www.w3.org/2000/svg">
<rect width="33" height="33" rx="6" fill="#E55555"/>
<path d="M16.4992 19.2917C15.3144 19.2917 14.3383 18.3146 14.2911 17.0773L14.0017 9.4007C13.9546 8.1283 14.9037 7.05624 16.1222 7.00351C16.1525 7.00351 16.1794 7 16.2097 7H16.792C18.0104 7 19 8.03339 19 9.3058C19 9.33743 19 9.36555 18.9966 9.39719L18.7038 17.0738C18.66 18.3146 17.6839 19.2917 16.4992 19.2917Z" fill="white"/>
<path d="M16.4992 20.3954C17.7176 20.3954 18.7038 21.4253 18.7038 22.6977C18.7038 23.9701 17.7176 25 16.4992 25C15.2807 25 14.2945 23.9701 14.2945 22.6977C14.2945 21.4253 15.2807 20.3954 16.4992 20.3954Z" fill="white"/>
</svg>
