<svg width="30" height="30" viewBox="0 0 30 30" fill="none" xmlns="http://www.w3.org/2000/svg">
<g opacity="0.5">
<path d="M18.612 11.8878C18.612 12.8232 18.432 13.416 18.042 13.7124C17.6772 13.9866 16.9242 14.1234 15.8064 14.1234H13.4562V9.6744H15.8064C16.9242 9.6744 17.6544 9.8118 18.042 10.1082C18.4296 10.38 18.612 10.9752 18.612 11.8878Z" fill="#2A3259"/>
<path d="M0 6V24C0 25.5913 0.632141 27.1174 1.75736 28.2426C2.88258 29.3679 4.4087 30 6 30H24C25.5913 30 27.1174 29.3679 28.2426 28.2426C29.3679 27.1174 30 25.5913 30 24V6C30 4.4087 29.3679 2.88258 28.2426 1.75736C27.1174 0.632141 25.5913 0 24 0H6C4.4087 0 2.88258 0.632141 1.75736 1.75736C0.632141 2.88258 0 4.4087 0 6ZM21.42 16.2222C20.325 17.0436 18.84 17.2716 16.2642 17.2716H13.4562V18.7086H17.4486C17.7 18.7086 17.814 18.8232 17.814 19.0512V20.6712C17.814 20.8998 17.7 21.0138 17.4486 21.0138H13.4562V23.637C13.4562 23.934 13.3878 24.0024 13.1142 24.0024H9.5778C9.3042 24.0024 9.2358 23.934 9.2358 23.637V21.0132H7.5C7.2492 21.0132 7.1352 20.8992 7.1352 20.6706V19.0506C7.1352 18.8226 7.2492 18.708 7.5 18.708H9.234V16.404H7.5C7.2492 16.404 7.1352 16.29 7.1352 16.062V14.4654C7.1352 14.2374 7.2492 14.1234 7.5 14.1234H9.234V6.5946C9.234 6.3894 9.348 6.2982 9.576 6.2754C11.8122 6.0954 14.0478 6.0018 16.2606 6.0018C18.7704 6.0018 20.5038 6.4122 21.4392 7.2108C22.3992 8.0094 22.8792 9.5376 22.8792 11.7708C22.8786 14.055 22.5132 15.4008 21.42 16.2222Z" fill="#2A3259"/>
</g>
</svg>
