<svg width="369" height="385" viewBox="0 0 369 385" fill="none" xmlns="http://www.w3.org/2000/svg">
<g clip-path="url(#clip0_72_3037)">
<mask id="mask0_72_3037" style="mask-type:luminance" maskUnits="userSpaceOnUse" x="22" y="27" width="317" height="319">
<path d="M292.352 298.715C354.153 236.686 354.153 136.118 292.352 74.0888C230.551 12.0601 130.351 12.0601 68.5499 74.0888C6.74868 136.118 6.74868 236.686 68.5499 298.715C130.351 360.744 230.551 360.744 292.352 298.715Z" fill="white"/>
</mask>
<g mask="url(#mask0_72_3037)">
<path d="M344.294 0.000244141H13.9053V382.258H344.294V0.000244141Z" fill="white"/>
<path d="M88.967 169.273H42.8784V384.992H88.967V169.273Z" fill="#E2E6FF"/>
<path d="M27.8984 178.037L65.9304 139.865L103.962 178.037H27.8984Z" fill="#E2E6FF"/>
<path d="M163.906 80.3328H117.818V344.787H163.906V80.3328Z" fill="#E2E6FF"/>
<path d="M102.83 89.089L140.862 50.917L178.894 89.089H102.83Z" fill="#E2E6FF"/>
<path d="M238.843 99.1072H192.755V378.036H238.843V99.1072Z" fill="#E2E6FF"/>
<path d="M177.768 107.871L215.8 69.699L253.832 107.871H177.768Z" fill="#E2E6FF"/>
<path d="M313.782 146.082H267.693V369.529H313.782V146.082Z" fill="#E2E6FF"/>
<path d="M252.706 154.838L290.738 116.666L328.77 154.838H252.706Z" fill="#E2E6FF"/>
<path d="M207.427 105.511C207.427 105.511 219.023 103.502 223.214 118.35C227.413 133.198 235.299 225.784 235.299 225.784L141.562 224.577C141.562 224.577 147.328 135.854 152.862 115.335C159.46 90.858 194.038 92.4628 202.226 97.8848C206.845 100.939 207.427 105.511 207.427 105.511Z" fill="#272C70"/>
<path d="M158.442 116.239C158.442 116.239 151.107 166.976 169.588 176.792C188.068 186.608 202.746 168.612 208.45 158.516C214.155 148.42 215.242 116.511 215.242 116.511L158.442 116.239Z" fill="#F1E0E5"/>
<path d="M211.711 147.766C207.155 144.868 204.19 139.827 203.15 134.515C202.11 129.202 202.863 123.655 204.57 118.521C199.75 125.657 192.33 130.425 183.878 131.975C186.175 130.105 187.285 127.612 188.667 124.987C179.003 133.253 165.017 134.483 153.444 129.233C154.034 124.925 154.609 119.363 157.061 115.779C158.451 113.746 160.352 112.11 162.409 110.754C168.347 106.844 175.581 105.223 182.69 105.2C189.792 105.177 196.824 106.657 203.678 108.542C209.507 110.147 215.77 112.445 218.766 117.703C220.497 120.741 220.87 124.395 220.621 127.885C220.14 134.561 216.073 142.71 211.711 147.773V147.766Z" fill="#272C70"/>
<path d="M220.125 145C219.939 147.695 218.767 150.313 217.129 152.354C216.019 153.741 214.668 154.909 213.147 155.517C211.626 156.124 209.934 156.124 208.583 155.314C207.342 154.566 206.464 153.203 205.937 151.692C204.726 148.202 205.323 143.909 207.155 140.536C208.428 138.191 210.384 136.174 212.666 135.613C217.276 134.475 220.451 140.232 220.117 145.008L220.125 145Z" fill="#EDD1D9"/>
<g style="mix-blend-mode:multiply">
<path d="M207.597 152.027C208.715 151.832 209.778 151.302 210.64 150.508C210.904 150.266 211.167 149.939 211.113 149.581C211.082 149.378 210.958 149.214 210.826 149.059C210.073 148.163 209.18 147.407 208.195 146.831C208.684 145.257 209.18 143.66 210.019 142.266C210.857 140.871 212.099 139.671 213.589 139.282C215.079 138.892 216.826 139.477 217.578 140.91C217.578 140.91 220.117 144.992 215.855 150.227C211.361 155.75 207.582 152.027 207.582 152.027H207.597Z" fill="#212563"/>
</g>
<path d="M217.587 140.918C216.881 139.921 215.717 139.477 214.63 139.524C213.543 139.57 212.558 140.147 211.782 140.918C210.998 141.697 210.415 142.663 209.942 143.707C209.484 144.759 209.104 145.865 208.739 147.01L208.475 146.34C209.119 146.737 209.717 147.213 210.253 147.735C210.516 147.999 210.765 148.288 210.998 148.576C211.114 148.724 211.23 148.856 211.355 149.075C211.487 149.285 211.556 149.62 211.479 149.893C211.316 150.43 210.943 150.679 210.664 150.905C210.361 151.131 210.035 151.318 209.701 151.482C209.034 151.809 208.304 151.996 207.583 152.027C208.273 151.809 208.902 151.482 209.469 151.077C209.748 150.874 210.004 150.648 210.253 150.407C210.501 150.173 210.703 149.908 210.71 149.729C210.71 149.643 210.695 149.612 210.633 149.519C210.571 149.433 210.439 149.3 210.322 149.176C210.082 148.927 209.833 148.701 209.569 148.482C209.049 148.038 208.498 147.649 207.901 147.33L207.505 147.119L207.645 146.66C207.986 145.514 208.32 144.338 208.855 143.201C209.375 142.071 210.082 140.973 211.067 140.124C212.022 139.282 213.326 138.675 214.653 138.815C215.942 138.924 217.176 139.742 217.587 140.903V140.918Z" fill="#272C70"/>
<path d="M154.616 204.782C154.616 204.782 140.948 212.042 135.142 224.647C129.336 237.252 128.281 348.753 128.281 348.753H146.272L154.616 204.782Z" fill="#F1E0E5"/>
<path d="M177.715 232.858C184.305 233.917 200.48 202.024 206.379 189.895C203.716 187.87 201.823 186.148 201.248 184.933C198.501 179.098 198.99 166.298 198.99 165.652L179.011 175.717C179.011 175.717 178.033 182.245 176.737 186.818C176.248 188.539 172.98 191.515 169.1 194.561C169.589 206.527 171.382 231.837 177.715 232.858Z" fill="#F1E0E5"/>
<path d="M241.151 348.753L226.512 298.49C226.512 298.49 243.704 222.037 240.313 215.073C237.627 209.565 216.461 197.56 206.379 189.903C200.48 202.032 184.305 233.925 177.715 232.866C171.389 231.853 169.589 206.535 169.1 194.569C162.696 199.594 154.617 204.782 154.617 204.782C154.617 204.782 143.882 224.374 142.299 235.273C140.715 246.171 146.156 256.696 146.156 256.696L134.77 348.753H241.143H241.151Z" fill="#F2C87E"/>
<path d="M230.478 206.293L222.724 296.761L205.292 348.753H220.465L241.212 299.986C241.212 299.986 252.917 236.667 247.81 223.837C244.34 215.112 230.478 206.293 230.478 206.293Z" fill="#F1E0E5"/>
<path d="M165.024 196.314C165.024 196.314 165.233 232.422 176.465 237.431C187.696 242.44 210.569 191.928 210.569 191.928" stroke="#272C70" stroke-width="0.631007" stroke-miterlimit="10"/>
<path d="M178.148 179.479C182.122 180.165 186.717 178.965 190.365 177.251C194.013 175.538 196.924 172.866 199.772 169.999C196.14 177.096 189.635 183.281 177.675 182.915" fill="#30326E"/>
<path d="M168.68 139.306C168.462 140.809 167.414 141.9 166.343 141.744C165.272 141.588 164.581 140.24 164.799 138.737C165.016 137.233 166.064 136.143 167.135 136.299C168.206 136.454 168.897 137.802 168.68 139.306Z" fill="#272C70"/>
<path d="M190.731 140.825C190.498 142.422 189.388 143.582 188.247 143.411C187.106 143.247 186.377 141.814 186.61 140.217C186.843 138.62 187.952 137.459 189.093 137.631C190.234 137.794 190.964 139.228 190.731 140.825Z" fill="#272C70"/>
<path d="M160.842 135.862C161.106 134.772 161.595 133.728 162.223 132.762C162.875 131.811 163.683 130.954 164.629 130.245C165.569 129.552 166.601 128.851 167.796 128.68C168.968 128.493 170.21 128.571 171.289 129.124L171.273 129.295C170.156 129.7 169.178 129.988 168.223 130.355C167.292 130.728 166.283 130.915 165.367 131.414C164.459 131.897 163.62 132.536 162.891 133.307C162.138 134.055 161.517 134.951 161.005 135.925L160.842 135.862Z" fill="#272C70"/>
<path d="M195.256 135.2C194.744 134.226 194.123 133.33 193.37 132.582C192.641 131.811 191.802 131.172 190.894 130.689C189.986 130.191 188.977 130.004 188.038 129.63C187.083 129.264 186.105 128.976 184.988 128.578L184.972 128.407C186.051 127.854 187.285 127.776 188.465 127.963C189.66 128.142 190.7 128.835 191.632 129.529C192.571 130.238 193.386 131.095 194.038 132.045C194.666 133.011 195.155 134.055 195.419 135.145L195.256 135.208V135.2Z" fill="#272C70"/>
<path d="M176.861 136.766C176.636 138.285 176.278 139.78 175.859 141.253C175.432 142.725 174.928 144.174 174.369 145.6C173.787 147.018 173.166 148.428 172.46 149.783C171.769 151.154 171.001 152.478 170.17 153.772L170.092 153.18C171.342 154.543 172.964 155.595 174.804 156.241C172.848 156.101 170.923 155.236 169.409 153.873L169.153 153.639L169.332 153.289C170.023 151.941 170.69 150.593 171.358 149.238C172.01 147.874 172.662 146.519 173.267 145.132C173.888 143.761 174.486 142.367 175.083 140.972L176.868 136.766H176.861Z" fill="#272C70"/>
<path d="M174.774 163.151C173.516 163.463 172.228 163.915 171.149 164.624C172.049 165.488 173.206 166.119 174.688 166.213C177.319 166.376 179.578 164.616 181.231 162.731C179.105 162.411 176.877 162.637 174.766 163.151H174.774Z" fill="#E92249"/>
<path d="M174.083 160.978C171.762 160.721 168.371 158.656 168.371 158.656C168.371 158.656 168.681 162.232 171.157 164.616C172.228 163.907 173.517 163.455 174.782 163.144C176.885 162.622 179.12 162.396 181.247 162.723C183.079 160.627 184.15 158.368 184.15 158.368C184.15 158.368 176.823 161.274 174.091 160.97L174.083 160.978Z" fill="#272C70"/>
<path d="M213.465 157.534C213.465 159.646 211.765 161.352 209.662 161.352C207.558 161.352 205.858 159.646 205.858 157.534C205.858 155.423 207.558 153.717 209.662 153.717C211.765 153.717 213.465 155.423 213.465 157.534Z" fill="white"/>
<path d="M135.959 277.286L151.149 355.476H133.933L113.8 275.564L135.959 277.286Z" fill="#F1E0E5"/>
<path d="M115.196 168.277C115.173 168.394 115.15 168.526 115.057 168.596C114.909 168.721 114.684 168.635 114.513 168.542C112.55 167.482 111.013 165.652 110.299 163.525C109.973 162.536 109.818 161.46 110.081 160.456C111.021 156.872 113.365 159.256 114.281 161.289C115.258 163.463 115.6 165.924 115.196 168.269V168.277Z" fill="#E92249"/>
<path d="M125.295 332.308L126.389 355.476H37.2622L40.7394 319.213L125.295 332.308Z" fill="#6F82FF"/>
<path d="M92.8821 189.568C91.3375 185.587 93.4254 177.563 93.4254 177.563C93.4254 177.563 102.77 183 110.703 180.149C115.973 178.248 117.611 169.001 117.611 169.001C114.281 167.171 111.704 163.486 111.099 159.723C113.559 161.39 116.369 162.824 119.14 163.891L120.118 159.482C120.118 159.482 125.815 159.38 127.507 156.264C129.199 153.148 121.957 143.496 121.53 141.798C121.103 140.1 123.083 122.4 123.083 122.4L72.3992 116.589C72.3992 116.589 67.7344 179.175 65.7475 184.901C65.6621 185.143 65.5301 185.4 65.3594 185.672C70.2259 191.274 84.6005 206.566 84.6005 206.566L92.8666 189.56L92.8821 189.568Z" fill="#F1E0E5"/>
<path d="M135.959 277.285C135.959 277.285 128.027 221.562 124.62 213.53C121.212 205.499 96.8562 194.896 93.9611 191.476C93.5109 190.947 93.1539 190.3 92.8745 189.568L84.6084 206.574C84.6084 206.574 70.2338 191.289 65.3673 185.68C61.4244 191.92 30.9445 207.197 27.3819 218.649C23.6641 230.599 32.7684 274.793 32.7684 274.793L41.4537 270.064L36.494 327.081C36.494 327.081 59.3132 336.538 82.8853 336.538C106.457 336.538 125.303 332.308 125.303 332.308L124.557 280.02L135.967 277.278L135.959 277.285Z" fill="#2D4EA9"/>
<path d="M68.1615 170.357C65.802 160.549 58.5604 152.728 54.47 143.52C50.985 135.667 49.8673 126.638 52.0716 118.326C54.2759 110.014 59.9575 102.551 67.6958 98.8582C72.151 96.7393 77.0796 95.8902 81.9461 95.0644C90.8099 93.5609 99.6815 92.0652 108.545 90.5617C111.665 90.0319 114.855 89.5022 117.983 89.993C121.111 90.4838 124.224 92.182 125.598 95.041C126.847 97.643 126.187 101.258 123.673 102.644C126.995 102.216 130.689 102.707 133.103 105.036C134.787 106.672 135.641 109.126 135.323 111.455C135.005 113.784 133.53 115.927 131.473 117.048C133.615 117.344 134.818 119.424 135.393 121.52C136.138 124.223 135.137 127.324 132.963 129.076C129.921 131.523 125.504 131.102 121.763 129.996C117.106 128.609 112.713 126.35 108.879 123.358C110.082 124.472 110.532 126.872 109.671 128.266C109.12 129.162 108.08 129.669 107.039 129.785C105.999 129.902 104.952 129.669 103.958 129.341C101.94 128.679 100.054 127.635 98.4163 126.272C98.3077 132.216 96.8174 138.503 94.2638 143.862C91.2213 143.668 88.2641 142.935 85.5165 141.611C84.034 149.043 82.5981 156.654 78.8027 163.198C78.5 163.72 78.1585 164.257 77.6384 164.561C77.1184 164.865 76.3655 164.857 75.993 164.382C75.7989 164.132 75.7368 163.813 75.698 163.501C75.5428 162.419 75.535 161.32 75.6592 160.237C74.7278 162.31 73.7266 164.405 72.477 166.306C71.2273 168.207 70.1407 169.235 68.1537 170.333L68.1615 170.357Z" fill="#30326E"/>
<path d="M76.195 141.767C76.3813 144.462 77.5533 147.08 79.191 149.121C80.3009 150.508 81.6514 151.676 83.1727 152.284C84.694 152.891 86.386 152.891 87.7365 152.081C88.9784 151.333 89.8555 149.97 90.3833 148.459C91.5941 144.969 90.9964 140.676 89.1647 137.303C87.8918 134.958 85.9358 132.941 83.6539 132.38C79.0435 131.242 75.869 136.999 76.2028 141.775L76.195 141.767Z" fill="#EDD1D9"/>
<g style="mix-blend-mode:multiply">
<path d="M88.7223 148.802C87.6046 148.607 86.5413 148.077 85.6797 147.283C85.4158 147.041 85.1519 146.714 85.2063 146.355C85.2373 146.153 85.3615 145.989 85.4934 145.834C86.2463 144.938 87.1389 144.182 88.1246 143.606C87.6357 142.032 87.1389 140.435 86.3007 139.04C85.4624 137.646 84.2205 136.446 82.7303 136.057C81.2401 135.667 79.4937 136.252 78.7408 137.685C78.7408 137.685 76.2028 141.767 80.4639 147.002C84.9579 152.525 88.7378 148.802 88.7378 148.802H88.7223Z" fill="#212563"/>
</g>
<path d="M78.7334 137.685C79.1448 136.524 80.3789 135.706 81.6673 135.597C82.9945 135.457 84.2907 136.065 85.2532 136.906C86.2389 137.747 86.9452 138.854 87.4652 139.983C87.993 141.113 88.3345 142.297 88.676 143.442L88.8158 143.902L88.4199 144.112C87.83 144.431 87.2712 144.821 86.7512 145.265C86.4873 145.483 86.2389 145.717 85.9983 145.958C85.8819 146.083 85.7499 146.215 85.6878 146.301C85.6257 146.395 85.6102 146.426 85.6102 146.511C85.6102 146.691 85.812 146.955 86.0681 147.189C86.3165 147.423 86.5726 147.657 86.8521 147.859C87.4187 148.256 88.0474 148.591 88.7381 148.81C88.0163 148.778 87.2867 148.591 86.6192 148.264C86.2855 148.101 85.9595 147.914 85.6568 147.688C85.3696 147.462 84.997 147.213 84.8418 146.675C84.7642 146.402 84.834 146.067 84.966 145.857C85.0902 145.639 85.2144 145.506 85.323 145.358C85.5559 145.062 85.8042 144.782 86.0681 144.517C86.6037 143.987 87.2013 143.52 87.8455 143.123L87.5817 143.793C87.2169 142.655 86.8365 141.541 86.3786 140.497C85.9129 139.453 85.323 138.487 84.5391 137.708C83.7629 136.937 82.7772 136.361 81.6906 136.314C80.6117 136.267 79.4397 136.711 78.7334 137.708V137.685Z" fill="#272C70"/>
<path d="M117.719 142.227C117.518 143.613 116.555 144.618 115.57 144.47C114.584 144.322 113.947 143.083 114.149 141.697C114.351 140.31 115.313 139.305 116.299 139.453C117.285 139.601 117.921 140.84 117.719 142.227Z" fill="#272C70"/>
<path d="M109.127 139.04C109.391 137.95 109.88 136.906 110.509 135.94C111.16 134.989 111.968 134.132 112.915 133.423C113.854 132.73 114.886 132.029 116.081 131.858C117.253 131.671 118.495 131.749 119.574 132.302L119.559 132.473C118.441 132.878 117.463 133.166 116.508 133.525C115.577 133.899 114.568 134.086 113.652 134.584C112.744 135.067 111.906 135.706 111.176 136.477C110.423 137.225 109.802 138.121 109.29 139.095L109.127 139.032V139.04Z" fill="#272C70"/>
<path d="M93.6721 177.672C90.3656 175.428 88.3631 171.712 86.9971 167.95C87.3619 172.912 89.3333 177.586 92.7562 181.185" fill="#272C70"/>
<path d="M32.7686 274.792L39.7618 270.975L41.6556 277.238L32.7686 274.792Z" fill="#272C70"/>
<path d="M31.6494 270.461C42.3915 264.977 53.0482 259.313 63.604 253.471" stroke="#ECF1FF" stroke-width="0.631007" stroke-miterlimit="10"/>
<path d="M84.6157 206.574L86.0205 214.566C86.4862 217.231 86.9752 219.895 87.3555 222.575L88.5198 230.606C88.9156 233.286 89.195 235.974 89.5365 238.662C90.8793 249.404 91.8185 260.194 92.5325 270.999C93.2 281.804 93.5027 292.632 93.5571 303.461C93.5881 308.875 93.5183 314.289 93.3863 319.695C93.1923 325.102 92.9594 330.516 92.5325 335.907C92.8508 330.508 92.9905 325.094 93.0758 319.688C93.1612 314.281 93.2 308.867 93.1302 303.461C93.006 292.64 92.6257 281.827 91.8961 271.038C91.2519 260.24 90.3748 249.451 89.1097 238.708C88.7837 236.021 88.5275 233.333 88.1472 230.653L87.0451 222.614C86.7191 219.926 86.2844 217.254 85.8653 214.582L84.6079 206.566L84.6157 206.574Z" fill="#ECF1FF"/>
<path d="M116.508 240.967L140.406 241.996L146.475 204.642C146.871 202.211 145.777 200.178 144.03 200.1L126.443 199.344C124.696 199.266 122.965 201.183 122.57 203.613L116.5 240.967H116.508Z" fill="#272C70"/>
<path d="M98.4922 284.78L143.611 286.727L156.417 207.89L111.307 205.951L98.4922 284.78Z" fill="#C5CDFF"/>
<path d="M99.8032 284.842L144.914 286.782L157.72 207.945L112.61 206.005L99.8032 284.842Z" fill="#218838"/>
<path d="M64.382 257.171C64.7391 258.246 70.3585 276.187 70.3585 276.187C70.3585 276.187 98.0287 235.397 100.062 233.559C102.538 231.307 107.498 229.5 107.498 229.5L106.318 235.646C106.318 235.646 129.719 226.976 132.226 227.521C134.741 228.067 114.336 238.965 114.336 238.965C120.336 238.513 126.265 236.955 131.8 234.595C133.538 233.855 135.308 233.006 137.194 232.998C137.015 234.299 135.929 235.257 134.889 236.044C129.362 240.243 122.936 243.234 116.175 244.761C119.963 244.8 123.526 243.803 127.026 242.354C130.527 240.905 133.895 239.136 137.434 237.804C137.923 237.617 138.599 237.508 138.855 237.968C139.057 238.326 138.816 238.778 138.568 239.105C136.961 241.232 134.656 242.712 132.32 243.998C126.894 246.973 121.003 249.085 114.934 250.23C118.713 249.895 122.656 249.832 126.452 249.778C126.754 249.778 127.104 249.793 127.275 250.043C127.391 250.206 127.383 250.424 127.337 250.611C127.096 251.609 125.947 252.029 124.962 252.279C117.045 254.312 108.833 255.862 100.722 254.865C100.722 254.865 73.0906 315.457 62.1079 313.736C51.1252 312.014 39.7544 270.975 39.7544 270.975L64.3743 257.171H64.382Z" fill="#F1E0E5"/>
<path d="M71.3906 274.917C70.2729 276.646 69.0854 278.298 67.8745 279.934C66.6715 281.578 65.4219 283.182 64.18 284.795C62.9149 286.392 61.6575 287.989 60.3535 289.547C59.0573 291.113 57.7379 292.671 56.333 294.167C57.3187 292.359 58.4131 290.638 59.5696 288.955C60.7183 287.264 61.9369 285.629 63.1865 284.016C64.4517 282.419 65.7479 280.838 67.1139 279.318C68.4722 277.792 69.877 276.311 71.3906 274.925V274.917Z" fill="#272C70"/>
<path d="M53.6157 214.372L56.6194 226.61C57.6362 230.685 58.6452 234.759 59.7318 238.818C60.7641 242.884 61.874 246.935 62.9762 250.994L66.3292 263.139C64.9632 259.166 63.7058 255.154 62.5105 251.126C61.3074 247.098 60.2053 243.04 59.1187 238.981C58.0864 234.907 57.0618 230.825 56.146 226.727C55.2223 222.622 54.3608 218.508 53.6079 214.372H53.6157Z" fill="#ECF1FF"/>
<path d="M55.7891 193.159L71.0096 199.352L64.4588 203.606L85.8498 214.629L98.9515 201.284L95.482 199.157L99.9139 195.48" stroke="#ECF1FF" stroke-width="0.631007" stroke-miterlimit="10"/>
<path d="M39.3877 332.72C66.763 342.762 97.3282 343.814 125.332 335.681" stroke="#272C70" stroke-width="0.631007" stroke-miterlimit="10"/>
<path d="M37.6196 349.625C42.2533 351.183 47.4381 351.565 51.9709 349.75C56.5114 347.927 60.206 343.619 60.4388 338.727" stroke="#272C70" stroke-width="0.631007" stroke-miterlimit="10"/>
<path d="M126.341 351.955C123.741 350.428 122.531 347.374 121.49 344.53C120.676 342.295 119.853 340.012 119.814 337.628" stroke="#272C70" stroke-width="0.631007" stroke-miterlimit="10"/>
<path d="M91.1587 355.655L92.4782 344.25" stroke="#272C70" stroke-width="0.631007" stroke-miterlimit="10"/>
<path d="M133.933 355.476C131.9 349.571 130.231 343.572 128.656 337.543C127.119 331.505 125.675 325.452 124.596 319.29C126.637 325.195 128.298 331.193 129.874 337.223C131.411 343.261 132.855 349.321 133.933 355.476Z" fill="#272C70"/>
<path d="M151.093 355.476C150.395 352.656 149.766 349.812 149.106 346.984L147.251 338.47C146.017 332.791 144.876 327.096 143.735 321.401C142.625 315.699 141.515 309.996 140.506 304.271L138.993 295.686C138.535 292.819 138.03 289.952 137.611 287.078C138.31 289.898 138.939 292.741 139.598 295.569L141.453 304.084C142.687 309.763 143.828 315.457 144.969 321.152C146.079 326.854 147.181 332.557 148.198 338.283L149.712 346.868C150.17 349.734 150.674 352.601 151.093 355.476Z" fill="#272C70"/>
<path d="M244.421 140.248L243.955 118.887L294.608 111.416L299.047 163.938C299.047 163.938 299.746 172.795 300.025 173.613C300.111 173.855 301.469 180.227 301.64 180.5C296.773 186.101 282.399 201.393 282.399 201.393L274.132 184.387C275.677 180.406 273.589 172.382 273.589 172.382C273.589 172.382 264.244 177.82 256.312 174.969C251.042 173.068 247.347 156.755 247.347 156.755L243.878 156.669C241.673 156.615 239.95 154.714 240.144 152.502C240.269 151.068 240.556 149.331 241.13 147.383C242.729 141.993 244.421 140.248 244.421 140.248Z" fill="#F1E0E5"/>
<path d="M247.914 139.43C248.116 140.817 249.079 141.821 250.064 141.673C251.05 141.525 251.686 140.287 251.485 138.9C251.283 137.513 250.32 136.509 249.335 136.657C248.349 136.805 247.712 138.043 247.914 139.43Z" fill="#272C70"/>
<path d="M255.93 135.472C255.208 134.646 254.393 133.922 253.493 133.361C252.608 132.785 251.638 132.348 250.644 132.091C249.643 131.819 248.619 131.865 247.625 131.725C246.616 131.593 245.592 131.538 244.42 131.406L244.365 131.242C245.289 130.455 246.469 130.089 247.656 129.996C248.859 129.894 250.031 130.331 251.102 130.79C252.181 131.266 253.167 131.912 254.021 132.683C254.851 133.478 255.573 134.382 256.078 135.379L255.938 135.472H255.93Z" fill="#272C70"/>
<path d="M273.34 172.484C276.646 170.24 278.649 166.524 280.015 162.761C279.658 167.724 277.679 172.398 274.256 175.997" fill="#272C70"/>
<path d="M268.024 124.652C269.064 129.747 270.585 134.732 272.564 139.539C274.994 139.477 276.888 139.258 279.278 138.783C282.375 146.386 285.72 154.223 288.817 161.827C292.24 162.684 295.539 163.556 299.039 163.938C299.497 161.733 308.866 150.367 311.768 136.072C315.176 119.315 311.07 99.1544 293.622 94.0596C286.566 92.003 274.87 93.8025 269.825 94.4958C269.111 94.5971 268.334 94.6672 267.706 94.3089C266.697 93.7246 266.572 92.2289 267.124 91.2006C267.682 90.1723 268.707 89.5179 269.693 88.8947C262.94 88.139 255.652 90.9357 251.492 96.3343C251.95 94.6361 252.524 92.8988 253.743 91.629C247.192 92.7197 239.942 96.942 237.404 103.096C234.866 109.25 236.682 117.204 242.193 120.92C244.498 122.478 247.238 123.242 249.963 123.795C255.815 124.979 262.063 125.228 268.008 124.644L268.024 124.652Z" fill="#272C70"/>
<path d="M290.821 136.586C290.634 139.282 289.462 141.899 287.825 143.94C286.715 145.327 285.364 146.496 283.843 147.103C282.322 147.711 280.63 147.711 279.279 146.901C278.037 146.153 277.16 144.789 276.632 143.278C275.422 139.788 276.019 135.496 277.851 132.123C279.124 129.778 281.08 127.76 283.362 127.199C287.972 126.062 291.147 131.819 290.813 136.594L290.821 136.586Z" fill="#EDD1D9"/>
<g style="mix-blend-mode:multiply">
<path d="M278.287 143.621C279.404 143.426 280.468 142.897 281.329 142.102C281.593 141.861 281.857 141.533 281.803 141.175C281.772 140.973 281.647 140.809 281.515 140.653C280.762 139.757 279.87 139.002 278.884 138.425C279.373 136.852 279.87 135.255 280.708 133.86C281.546 132.466 282.788 131.266 284.279 130.876C285.769 130.487 287.515 131.071 288.268 132.505C288.268 132.505 290.806 136.587 286.545 141.822C282.051 147.345 278.271 143.621 278.271 143.621H278.287Z" fill="#212563"/>
</g>
<path d="M288.284 132.505C287.577 131.507 286.413 131.063 285.326 131.11C284.24 131.157 283.254 131.733 282.478 132.505C281.694 133.284 281.112 134.25 280.638 135.293C280.18 136.345 279.8 137.451 279.435 138.589L279.171 137.919C279.816 138.316 280.413 138.791 280.949 139.313C281.213 139.586 281.461 139.866 281.694 140.155C281.81 140.303 281.927 140.435 282.051 140.653C282.183 140.863 282.253 141.206 282.175 141.471C282.012 142.009 281.647 142.258 281.36 142.484C281.057 142.71 280.731 142.897 280.398 143.06C279.73 143.388 279.001 143.574 278.279 143.598C278.97 143.38 279.598 143.053 280.165 142.647C280.444 142.445 280.7 142.219 280.949 141.977C281.197 141.744 281.399 141.479 281.407 141.3C281.407 141.214 281.391 141.183 281.329 141.089C281.267 141.004 281.135 140.871 281.019 140.747C280.778 140.497 280.53 140.271 280.266 140.053C279.746 139.609 279.187 139.22 278.597 138.9L278.201 138.69L278.341 138.23C278.682 137.085 279.024 135.909 279.552 134.772C280.072 133.642 280.778 132.544 281.764 131.694C282.718 130.853 284.022 130.245 285.35 130.386C286.638 130.495 287.872 131.313 288.284 132.473V132.505Z" fill="#272C70"/>
<path d="M239.744 131.681L238.882 131.846L242.043 148.459L242.904 148.294L239.744 131.681Z" fill="#272C70"/>
<path d="M241.284 140.341L276.832 132.956L276.98 133.735L241.432 141.12L241.284 140.341Z" fill="#272C70"/>
<path d="M248.791 162.255C251.732 160.253 253.859 156.888 254.371 153.164C254.278 156.919 252.539 160.689 249.559 163.26L248.791 162.255Z" fill="#272C70"/>
<path d="M317.117 306.537C315.029 295.927 310.775 283.587 310.473 279.949C309.634 269.986 315.409 247.581 315.269 229.383C315.122 211.193 313.934 208.544 306.475 194.109C302.253 185.945 300.025 173.621 300.025 173.621C300.025 173.621 296.339 176.651 288.499 178.155C281.561 179.487 274.443 177.695 274.443 177.695C274.443 177.695 274.901 180.351 274.133 184.394C273.364 188.43 254.946 200.232 248.55 223.19C244.615 237.329 240.866 280.931 238.569 312.333C264.648 317.342 292.031 315.286 317.109 306.537H317.117Z" fill="#272C70"/>
<path d="M237.824 322.881C236.846 337.012 236.271 348.752 236.271 348.752H325.429C325.429 348.752 322.309 332.26 319.189 316.898C293.273 326.215 264.811 328.357 237.824 322.881Z" fill="#6F82FF"/>
<path d="M319.189 316.898C318.483 313.431 317.785 309.934 317.117 306.537C292.039 315.286 264.656 317.342 238.577 312.333C238.305 316.041 238.057 319.586 237.824 322.881C264.811 328.357 293.281 326.215 319.189 316.898Z" fill="#4577F5"/>
<path d="M219.079 207.913C219.079 207.913 217.589 200.24 217.884 193.291C218.179 186.334 219.095 179.417 218.769 178.793C218.443 178.162 213.165 177.757 212.575 185.306C212.295 188.851 211.248 190.487 211.248 190.487C211.248 190.487 193.388 190.806 191.913 192.434C190.439 194.062 192.232 197.147 192.232 197.147C192.232 197.147 190.322 198.511 190.462 200.404C190.602 202.297 192.821 204.104 192.821 204.104C192.821 204.104 191.494 205.88 192.084 207.804C192.674 209.728 194.149 210.172 194.149 210.172C194.149 210.172 193.854 212.837 195.033 213.873C196.213 214.909 205.054 213.281 205.054 213.281L207.856 220.089L219.071 207.937L219.079 207.913Z" fill="#F1E0E5"/>
<path d="M272.651 210.57L240.556 254.577L219.088 207.921C219.088 207.921 214.322 211.684 210.092 214.41C205.862 217.137 199.032 220.713 199.032 220.713C199.032 220.713 222.123 292.297 235.372 296.496C248.613 300.695 297.053 238.093 297.053 238.093L272.659 210.578L272.651 210.57Z" fill="#272C70"/>
<path d="M240.555 254.569C242.604 251.788 244.529 248.929 246.306 245.984C248.115 243.055 249.815 240.056 251.499 237.048C253.168 234.026 254.875 231.027 256.629 228.051C258.399 225.075 260.262 222.161 262.202 219.287C266.122 213.584 270.499 208.108 275.777 203.566C278.409 201.315 281.195 199.188 284.3 197.599C287.389 196.056 290.913 195.059 294.351 195.573C290.897 195.355 287.528 196.454 284.587 198.152C281.606 199.811 278.936 201.985 276.414 204.298C273.907 206.628 271.555 209.113 269.39 211.769C267.209 214.41 265.159 217.168 263.235 220.011C259.33 225.667 255.869 231.619 252.33 237.547C250.544 240.5 248.744 243.452 246.819 246.334C244.855 249.186 242.822 251.982 240.547 254.584L240.555 254.569Z" fill="#ECF1FF"/>
<path d="M239.088 296.317C242.216 294.595 245.018 292.39 247.61 289.96C250.218 287.553 252.686 284.982 255.193 282.442C260.168 277.34 265.12 272.222 269.987 267.018C274.869 261.829 279.658 256.555 284.439 251.266C286.822 248.617 289.189 245.953 291.525 243.258C293.908 240.601 296.213 237.882 298.581 235.21C296.439 238.061 294.219 240.858 291.999 243.655C289.756 246.428 287.466 249.17 285.169 251.905C280.558 257.358 275.777 262.663 270.911 267.882C266.013 273.078 261.022 278.181 255.876 283.128C253.292 285.582 250.746 288.09 248.022 290.419C245.282 292.71 242.356 294.844 239.096 296.309L239.088 296.317Z" fill="#ECF1FF"/>
<path d="M238.63 250.37C239.608 251.897 240.524 253.463 241.424 255.029C242.333 256.594 243.186 258.191 244.071 259.765C244.909 261.37 245.771 262.959 246.594 264.572C247.409 266.184 248.216 267.805 248.961 269.464C247.983 267.937 247.067 266.371 246.167 264.805C245.259 263.24 244.405 261.643 243.52 260.069C242.682 258.464 241.813 256.875 240.998 255.262C240.183 253.65 239.375 252.029 238.623 250.37H238.63Z" fill="#ECF1FF"/>
<path d="M201.273 227.233C208.562 223.509 215.951 219.723 221.981 214.185" stroke="#ECF1FF" stroke-width="0.631007" stroke-miterlimit="10"/>
<path d="M281.452 324.767C281.941 332.728 282.709 340.666 283.757 348.573" stroke="#272C70" stroke-width="0.631007" stroke-miterlimit="10"/>
<path d="M262.304 325.631C263.414 330.422 265.564 335.104 269.196 338.407C272.821 341.71 278.075 343.44 282.787 342.076" stroke="#272C70" stroke-width="0.631007" stroke-miterlimit="10"/>
<path d="M274.372 182.432C278.982 183.437 283.717 184.2 288.413 183.709C293.109 183.218 297.804 181.364 300.948 177.828" stroke="#ECF1FF" stroke-width="0.631007" stroke-miterlimit="10"/>
</g>
<path d="M180.453 364.807C278.527 364.807 358.032 285.01 358.032 186.575C358.032 88.1403 278.527 8.34302 180.453 8.34302C82.3795 8.34302 2.875 88.1403 2.875 186.575C2.875 285.01 82.3795 364.807 180.453 364.807Z" stroke="#EEF2F5" stroke-width="1.19969" stroke-miterlimit="10"/>
<path d="M311.946 74.2721C327.708 74.2721 340.485 61.4475 340.485 45.6275C340.485 29.8075 327.708 16.9829 311.946 16.9829C296.184 16.9829 283.406 29.8075 283.406 45.6275C283.406 61.4475 296.184 74.2721 311.946 74.2721Z" fill="#F4F4F4"/>
<mask id="mask1_72_3037" style="mask-type:luminance" maskUnits="userSpaceOnUse" x="283" y="16" width="58" height="59">
<path d="M311.947 74.2721C327.709 74.2721 340.486 61.4475 340.486 45.6275C340.486 29.8075 327.709 16.9829 311.947 16.9829C296.185 16.9829 283.407 29.8075 283.407 45.6275C283.407 61.4475 296.185 74.2721 311.947 74.2721Z" fill="white"/>
</mask>
<g mask="url(#mask1_72_3037)">
<path d="M339.714 81.5679C343.335 66.171 333.834 50.7434 318.493 47.1093C303.153 43.4753 287.782 53.0111 284.161 68.408C280.541 83.8049 290.041 99.2326 305.382 102.867C320.722 106.501 336.093 96.9648 339.714 81.5679Z" fill="#207FFF"/>
<path d="M311.946 46.4843C318.616 46.4843 324.023 41.0573 324.023 34.3628C324.023 27.6682 318.616 22.2412 311.946 22.2412C305.276 22.2412 299.869 27.6682 299.869 34.3628C299.869 41.0573 305.276 46.4843 311.946 46.4843Z" fill="#4795FF"/>
</g>
<path d="M360.738 314.898C363.422 298.301 352.193 282.663 335.657 279.969C319.122 277.275 303.541 288.545 300.857 305.142C298.172 321.739 309.401 337.377 325.937 340.071C342.473 342.765 358.054 331.495 360.738 314.898Z" fill="#F4F4F4"/>
<mask id="mask2_72_3037" style="mask-type:luminance" maskUnits="userSpaceOnUse" x="300" y="279" width="62" height="62">
<path d="M360.738 314.898C363.422 298.301 352.193 282.663 335.657 279.969C319.122 277.275 303.541 288.545 300.857 305.142C298.172 321.739 309.401 337.377 325.937 340.071C342.473 342.765 358.054 331.495 360.738 314.898Z" fill="white"/>
</mask>
<g mask="url(#mask2_72_3037)">
<path d="M342.397 369.345C357.874 362.911 365.223 345.102 358.812 329.568C352.402 314.034 334.658 306.657 319.181 313.092C303.704 319.526 296.355 337.335 302.765 352.869C309.176 368.403 326.92 375.78 342.397 369.345Z" fill="#207FFF"/>
<path d="M335.706 309.934C342.256 307.211 345.367 299.673 342.653 293.099C339.94 286.524 332.43 283.402 325.88 286.125C319.33 288.849 316.219 296.386 318.932 302.96C321.646 309.535 329.155 312.657 335.706 309.934Z" fill="#4795FF"/>
</g>
<path d="M28.1241 96.0219C43.1359 96.0219 55.3053 83.8076 55.3053 68.7405C55.3053 53.6735 43.1359 41.4592 28.1241 41.4592C13.1123 41.4592 0.942871 53.6735 0.942871 68.7405C0.942871 83.8076 13.1123 96.0219 28.1241 96.0219Z" fill="#F4F4F4"/>
<mask id="mask3_72_3037" style="mask-type:luminance" maskUnits="userSpaceOnUse" x="0" y="41" width="56" height="56">
<path d="M28.1226 96.0219C43.1344 96.0219 55.3039 83.8076 55.3039 68.7405C55.3039 53.6735 43.1344 41.4592 28.1226 41.4592C13.1109 41.4592 0.941406 53.6735 0.941406 68.7405C0.941406 83.8076 13.1109 96.0219 28.1226 96.0219Z" fill="white"/>
</mask>
<g mask="url(#mask3_72_3037)">
<path d="M28.1221 123.997C43.1339 123.997 55.3034 111.782 55.3034 96.7154C55.3034 81.6483 43.1339 69.4341 28.1221 69.4341C13.1104 69.4341 0.940918 81.6483 0.940918 96.7154C0.940918 111.782 13.1104 123.997 28.1221 123.997Z" fill="#207FFF"/>
<path d="M28.1224 69.5511C34.4751 69.5511 39.6251 64.3822 39.6251 58.006C39.6251 51.6299 34.4751 46.4609 28.1224 46.4609C21.7696 46.4609 16.6196 51.6299 16.6196 58.006C16.6196 64.3822 21.7696 69.5511 28.1224 69.5511Z" fill="#4795FF"/>
</g>
<path d="M77.1589 349.911C87.1282 339.905 87.1282 323.682 77.1589 313.676C67.1896 303.67 51.0262 303.67 41.0569 313.676C31.0876 323.682 31.0876 339.905 41.0569 349.911C51.0262 359.917 67.1896 359.917 77.1589 349.911Z" fill="#F4F4F4"/>
<mask id="mask4_72_3037" style="mask-type:luminance" maskUnits="userSpaceOnUse" x="33" y="306" width="52" height="52">
<path d="M77.1589 349.911C87.1282 339.905 87.1282 323.682 77.1589 313.676C67.1896 303.67 51.0262 303.67 41.0569 313.676C31.0876 323.682 31.0876 339.905 41.0569 349.911C51.0262 359.917 67.1896 359.917 77.1589 349.911Z" fill="white"/>
</mask>
<g mask="url(#mask4_72_3037)">
<path d="M83.9473 363.936C87.1859 350.163 78.6877 336.364 64.966 333.113C51.2443 329.863 37.4952 338.392 34.2566 352.164C31.018 365.937 39.5162 379.736 53.2379 382.987C66.9597 386.237 80.7087 377.708 83.9473 363.936Z" fill="#207FFF"/>
<path d="M66.7468 329.38C70.9661 325.146 70.9661 318.28 66.7468 314.045C62.5275 309.81 55.6866 309.81 51.4673 314.045C47.2481 318.28 47.2481 325.146 51.4674 329.38C55.6867 333.615 62.5275 333.615 66.7468 329.38Z" fill="#4795FF"/>
</g>
<path d="M349.13 126.723C359.59 126.723 368.069 118.213 368.069 107.715C368.069 97.2173 359.59 88.707 349.13 88.707C338.671 88.707 330.192 97.2173 330.192 107.715C330.192 118.213 338.671 126.723 349.13 126.723Z" fill="white"/>
<path d="M349.131 126.723C359.59 126.723 368.069 118.213 368.069 107.715C368.069 97.2173 359.59 88.707 349.131 88.707C338.671 88.707 330.192 97.2173 330.192 107.715C330.192 118.213 338.671 126.723 349.131 126.723Z" fill="#F4F4F4"/>
<mask id="mask5_72_3037" style="mask-type:luminance" maskUnits="userSpaceOnUse" x="330" y="88" width="39" height="39">
<path d="M349.131 126.723C359.591 126.723 368.07 118.213 368.07 107.715C368.07 97.2173 359.591 88.707 349.131 88.707C338.672 88.707 330.193 97.2173 330.193 107.715C330.193 118.213 338.672 126.723 349.131 126.723Z" fill="white"/>
</mask>
<g mask="url(#mask5_72_3037)">
<path d="M349.132 146.207C359.591 146.207 368.07 137.696 368.07 127.199C368.07 116.701 359.591 108.19 349.132 108.19C338.672 108.19 330.193 116.701 330.193 127.199C330.193 137.696 338.672 146.207 349.132 146.207Z" fill="#207FFF"/>
<path d="M349.132 108.276C353.555 108.276 357.142 104.677 357.142 100.237C357.142 95.7967 353.555 92.1973 349.132 92.1973C344.708 92.1973 341.122 95.7967 341.122 100.237C341.122 104.677 344.708 108.276 349.132 108.276Z" fill="#4795FF"/>
</g>
<path d="M272.84 362.369C282.181 362.369 289.753 354.769 289.753 345.394C289.753 336.019 282.181 328.42 272.84 328.42C263.5 328.42 255.928 336.019 255.928 345.394C255.928 354.769 263.5 362.369 272.84 362.369Z" fill="white"/>
<path d="M272.84 362.369C282.181 362.369 289.753 354.769 289.753 345.394C289.753 336.019 282.181 328.42 272.84 328.42C263.5 328.42 255.928 336.019 255.928 345.394C255.928 354.769 263.5 362.369 272.84 362.369Z" fill="#F4F4F4"/>
<mask id="mask6_72_3037" style="mask-type:luminance" maskUnits="userSpaceOnUse" x="255" y="328" width="35" height="35">
<path d="M272.839 362.369C282.179 362.369 289.751 354.769 289.751 345.394C289.751 336.019 282.179 328.419 272.839 328.419C263.498 328.419 255.926 336.019 255.926 345.394C255.926 354.769 263.498 362.369 272.839 362.369Z" fill="white"/>
</mask>
<g mask="url(#mask6_72_3037)">
<path d="M272.839 379.765C282.179 379.765 289.751 372.165 289.751 362.79C289.751 353.415 282.179 345.815 272.839 345.815C263.498 345.815 255.926 353.415 255.926 362.79C255.926 372.165 263.498 379.765 272.839 379.765Z" fill="#207FFF"/>
<path d="M272.839 345.901C276.791 345.901 279.995 342.685 279.995 338.718C279.995 334.752 276.791 331.536 272.839 331.536C268.887 331.536 265.683 334.752 265.683 338.718C265.683 342.685 268.887 345.901 272.839 345.901Z" fill="#4795FF"/>
</g>
<path d="M38.7574 284.028C41.0527 274.267 35.0297 264.487 25.3048 262.183C15.5799 259.88 5.83557 265.925 3.54027 275.685C1.24498 285.446 7.26789 295.226 16.9928 297.53C26.7178 299.834 36.4621 293.789 38.7574 284.028Z" fill="#F4F4F4"/>
<path d="M38.7574 284.028C41.0527 274.267 35.0297 264.487 25.3048 262.183C15.5799 259.88 5.83557 265.925 3.54027 275.685C1.24498 285.446 7.26789 295.226 16.9928 297.53C26.7178 299.834 36.4621 293.789 38.7574 284.028Z" fill="#F4F4F4"/>
<mask id="mask7_72_3037" style="mask-type:luminance" maskUnits="userSpaceOnUse" x="3" y="261" width="37" height="38">
<path d="M38.7574 284.028C41.0527 274.267 35.0297 264.487 25.3048 262.183C15.5799 259.88 5.83557 265.925 3.54027 275.685C1.24498 285.446 7.26789 295.226 16.9928 297.53C26.7178 299.834 36.4621 293.789 38.7574 284.028Z" fill="white"/>
</mask>
<g mask="url(#mask7_72_3037)">
<path d="M21.1466 316.64C31.1387 316.64 39.2389 308.51 39.2389 298.481C39.2389 288.453 31.1387 280.323 21.1466 280.323C11.1544 280.323 3.0542 288.453 3.0542 298.481C3.0542 308.51 11.1544 316.64 21.1466 316.64Z" fill="#207FFF"/>
<path d="M21.1466 280.409C25.3732 280.409 28.7996 276.97 28.7996 272.728C28.7996 268.486 25.3732 265.047 21.1466 265.047C16.92 265.047 13.4937 268.486 13.4937 272.728C13.4937 276.97 16.92 280.409 21.1466 280.409Z" fill="#4795FF"/>
</g>
<path d="M98.239 37.3067C99.8613 27.2757 93.0745 17.824 83.0803 16.1957C73.0861 14.5675 63.6691 21.3792 62.0468 31.4103C60.4245 41.4413 67.2113 50.893 77.2055 52.5212C87.1997 54.1495 96.6167 47.3377 98.239 37.3067Z" fill="white"/>
<path d="M98.239 37.3067C99.8613 27.2757 93.0745 17.824 83.0803 16.1957C73.0861 14.5675 63.6691 21.3792 62.0468 31.4103C60.4245 41.4413 67.2113 50.893 77.2055 52.5212C87.1997 54.1495 96.6167 47.3377 98.239 37.3067Z" fill="#F4F4F4"/>
<mask id="mask8_72_3037" style="mask-type:luminance" maskUnits="userSpaceOnUse" x="61" y="15" width="38" height="38">
<path d="M98.24 37.307C99.8623 27.2759 93.0755 17.8242 83.0813 16.196C73.0871 14.5677 63.6701 21.3795 62.0478 31.4105C60.4255 41.4415 67.2123 50.8932 77.2065 52.5215C87.2007 54.1497 96.6177 47.338 98.24 37.307Z" fill="white"/>
</mask>
<g mask="url(#mask8_72_3037)">
<path d="M80.1357 71.624C90.2607 71.624 98.4687 63.3858 98.4687 53.2235C98.4687 43.0612 90.2607 34.823 80.1357 34.823C70.0107 34.823 61.8027 43.0612 61.8027 53.2235C61.8027 63.3858 70.0107 71.624 80.1357 71.624Z" fill="#207FFF"/>
<path d="M87.8041 28.3635C88.4909 24.1166 85.6176 20.1151 81.3864 19.4257C77.1551 18.7363 73.1682 21.6202 72.4814 25.8671C71.7946 30.1139 74.6679 34.1155 78.8991 34.8048C83.1304 35.4942 87.1173 32.6103 87.8041 28.3635Z" fill="#4795FF"/>
</g>
<path d="M250.282 16.4998H111.108C98.1022 16.4998 87.5591 27.0817 87.5591 40.1353V40.143C87.5591 53.1966 98.1022 63.7785 111.108 63.7785H250.282C263.287 63.7785 273.83 53.1966 273.83 40.143V40.1353C273.83 27.0817 263.287 16.4998 250.282 16.4998Z" fill="#207FFF"/>
<path d="M114.914 45.3571V47.8748H105.518V33.3426H108.559V45.3571H114.914ZM126.344 45.3571V47.8748H116.717V33.3426H126.344V35.8502H119.758V39.3549H125.972V41.6913H119.758V45.3571H126.344ZM135.106 47.8748H132.065V35.8502H127.815V33.3426H139.366V35.8502H135.106V47.8748ZM143.525 39.0125H141.128L142.156 33.3426H144.905L143.525 39.0125ZM146.184 43.7357H149.115C149.255 44.9341 150.504 45.7196 152.116 45.7196C153.737 45.7196 154.845 44.9442 154.845 43.8766C154.845 42.93 154.15 42.4063 152.398 42.0135L150.504 41.6006C147.825 41.0266 146.506 39.6671 146.506 37.5421C146.506 34.8633 148.822 33.0908 152.065 33.0908C155.449 33.0908 157.574 34.8331 157.624 37.4615H154.774C154.674 36.2329 153.596 35.4877 152.075 35.4877C150.575 35.4877 149.568 36.2027 149.568 37.2803C149.568 38.1766 150.273 38.6801 151.944 39.0628L153.707 39.4354C156.617 40.0598 157.886 41.3086 157.886 43.5242C157.886 46.344 155.6 48.1265 151.995 48.1265C148.5 48.1265 146.275 46.4648 146.184 43.7357ZM170.757 47.8748H167.715V35.8502H163.465V33.3426H175.017V35.8502H170.757V47.8748ZM186.326 45.3571V47.8748H176.698V33.3426H186.326V35.8502H179.74V39.3549H185.953V41.6913H179.74V45.3571H186.326ZM198.038 47.8748L196.931 44.35H191.825L190.717 47.8748H187.595L192.641 33.3426H196.216L201.271 47.8748H198.038ZM194.342 36.1221L192.479 42.074H196.276L194.413 36.1221H194.342ZM218.15 33.3426V47.8748H215.441V38.0658H215.36L211.412 47.7338H209.499L205.551 38.0658H205.471V47.8748H202.762V33.3426H206.286L210.415 43.645H210.496L214.625 33.3426H218.15ZM228.039 33.3426V42.4365C228.039 44.2996 229.137 45.5182 231.091 45.5182C233.034 45.5182 234.132 44.2996 234.132 42.4365V33.3426H237.174V42.7386C237.174 45.9412 234.807 48.1265 231.091 48.1265C227.365 48.1265 224.998 45.9412 224.998 42.7386V33.3426H228.039ZM239.601 33.3426H245.663C248.644 33.3426 250.699 35.3265 250.699 38.3176C250.699 41.2985 248.574 43.2925 245.512 43.2925H242.642V47.8748H239.601V33.3426ZM242.642 35.7495V40.9158H244.848C246.59 40.9158 247.607 39.9893 247.607 38.3276C247.607 36.676 246.6 35.7495 244.858 35.7495H242.642ZM253.035 33.3426H256.056L255.815 43.0911H253.277L253.035 33.3426ZM254.546 48.1265C253.629 48.1265 252.904 47.4316 252.904 46.5454C252.904 45.6592 253.629 44.9643 254.546 44.9643C255.462 44.9643 256.187 45.6592 256.187 46.5454C256.187 47.4316 255.462 48.1265 254.546 48.1265Z" fill="white"/>
<path d="M129.7 52.2805C127.597 63.997 122.808 75.0357 117.84 85.8485C129.568 76.4847 137.175 63.0076 144.502 49.8811" fill="#207FFF"/>
<path d="M231.207 52.2805C233.311 63.997 238.1 75.0357 243.067 85.8485C231.339 76.4847 223.733 63.0076 216.406 49.8811" fill="#207FFF"/>
<path d="M174.245 58.0214C174.245 59.2289 180.253 88.1773 180.253 88.1773L186.664 57.219" fill="#207FFF"/>
</g>
<defs>
<clipPath id="clip0_72_3037">
<rect width="367.125" height="385" fill="white" transform="translate(0.946289)"/>
</clipPath>
</defs>
</svg>
