<svg width="30" height="29" viewBox="0 0 30 29" fill="none" xmlns="http://www.w3.org/2000/svg">
<g opacity="0.5">
<path d="M1.20243 28.298H28.7975C29.1661 28.298 29.5098 28.1475 29.7404 27.8854C29.9408 27.658 30.0294 27.3696 29.9914 27.0733C29.3443 22.0319 26.2444 17.8309 22.0006 15.5911C20.2069 17.3848 17.7307 18.4958 15 18.4958C12.2694 18.4958 9.79307 17.3848 7.99946 15.5911C3.7556 17.8303 0.655094 22.0319 0.00858591 27.0733C-0.0294653 27.3696 0.059804 27.6586 0.259603 27.8854C0.490206 28.1475 0.833875 28.298 1.20243 28.298Z" fill="#2A3259"/>
<path d="M8.78187 14.5011C8.94289 14.67 9.11104 14.8309 9.28511 14.9866C10.8055 16.3467 12.8048 17.181 14.9999 17.181C17.1951 17.181 19.1944 16.346 20.7147 14.9866C20.8888 14.8309 21.0571 14.6699 21.218 14.5011C21.3783 14.3323 21.5347 14.1595 21.6818 13.9782C22.873 12.5031 23.5904 10.6301 23.5904 8.59064C23.5904 3.85344 19.7363 0 14.9998 0C10.2633 0 6.40941 3.85405 6.40941 8.59052C6.40941 10.6299 7.12682 12.5031 8.31801 13.9781C8.46453 14.1595 8.62085 14.3317 8.78187 14.5011Z" fill="#2A3259"/>
</g>
</svg>
