<svg width="30" height="27" viewBox="0 0 30 27" fill="none" xmlns="http://www.w3.org/2000/svg">
<path opacity="0.5" d="M28.5 0H3C2.20435 0 1.44129 0.31607 0.87868 0.878679C0.31607 1.44129 0 2.20435 0 3V24C0 24.7956 0.31607 25.5587 0.87868 26.1213C1.44129 26.6839 2.20435 27 3 27H27C27.7957 27 28.5587 26.6839 29.1213 26.1213C29.6839 25.5587 30 24.7956 30 24V7.5C30 7.10217 29.842 6.72064 29.5607 6.43934C29.2794 6.15803 28.8978 6 28.5 6H4.5C4.10218 6 3.72064 5.84196 3.43934 5.56066C3.15804 5.27936 3 4.89782 3 4.5C3 4.10217 3.15804 3.72064 3.43934 3.43934C3.72064 3.15804 4.10218 3 4.5 3H30V1.5C30 1.10218 29.842 0.720644 29.5607 0.43934C29.2794 0.158035 28.8978 0 28.5 0ZM24.75 14.25C25.195 14.25 25.63 14.382 26 14.6292C26.37 14.8764 26.6584 15.2278 26.8287 15.639C26.999 16.0501 27.0436 16.5025 26.9568 16.939C26.87 17.3754 26.6557 17.7763 26.341 18.091C26.0263 18.4057 25.6254 18.6199 25.189 18.7068C24.7525 18.7936 24.3001 18.749 23.889 18.5787C23.4778 18.4084 23.1264 18.12 22.8792 17.75C22.632 17.38 22.5 16.945 22.5 16.5C22.5 15.9033 22.7371 15.331 23.159 14.909C23.581 14.4871 24.1533 14.25 24.75 14.25Z" fill="#2A3259"/>
</svg>
